<svg xmlns="http://www.w3.org/2000/svg" version="1.1" xmlns:xlink="http://www.w3.org/1999/xlink" xmlns:svgjs="http://svgjs.dev/svgjs" width="1000" height="239" viewBox="0 0 1000 239"><g transform="matrix(1,0,0,1,-0.606060460300057,0.4930273153880478)"><svg viewBox="0 0 396 95" data-background-color="#ffffff" preserveAspectRatio="xMidYMid meet" height="239" width="1000" xmlns="http://www.w3.org/2000/svg" xmlns:xlink="http://www.w3.org/1999/xlink"><g id="tight-bounds" transform="matrix(1,0,0,1,0.24000005772120403,-0.19597320067725832)"><svg viewBox="0 0 395.52 95.39194640135452" height="95.39194640135452" width="395.52"><g><svg viewBox="0 0 539.8633632571394 130.20483670074844" height="95.39194640135452" width="395.52"><g transform="matrix(1,0,0,1,0,17.995024464430507)"><svg viewBox="0 0 395.52 94.21478777188743" height="94.21478777188743" width="395.52"><g><svg viewBox="0 0 395.52 94.21478777188743" height="94.21478777188743" width="395.52"><g><svg viewBox="0 0 395.52 59.88972431077695" height="59.88972431077695" width="395.52"><g transform="matrix(1,0,0,1,0,0)"><svg width="395.52" viewBox="3.6500000953674316 -35.79999923706055 239.3800048828125 36.25" height="59.88972431077695" data-palette-color="#6b7280"><path d="M15.6-16.7L28.7 0 22.2 0 9.45-16.65 21.7-33.7 27.95-33.7 15.6-16.7ZM8.8-33.7L8.8 0 3.65 0 3.65-33.7 8.8-33.7ZM52.3-5.75L52.3-1.35Q49.5 0.25 44.9 0.25L44.9 0.25Q39 0.25 35.5-3.3 32-6.85 32-12.6L32-12.6Q32-18.7 35.2-22.18 38.4-25.65 43.35-25.65L43.35-25.65Q48.2-25.65 51.05-22.63 53.9-19.6 53.9-13.9L53.9-13.9Q53.9-12.35 53.6-10.65L53.6-10.65 36.95-10.65Q37.45-7.35 39.75-5.6 42.05-3.85 45.55-3.85L45.55-3.85Q49.6-3.85 52.3-5.75L52.3-5.75ZM43.45-21.6L43.45-21.6Q40.95-21.6 39.15-19.78 37.35-17.95 36.9-14.5L36.9-14.5 49.15-14.5 49.15-15.4Q49.05-18.25 47.6-19.93 46.15-21.6 43.45-21.6ZM75.5-7L75.5-7Q75.5-3.6 73.1-1.68 70.7 0.25 66.6 0.25L66.6 0.25Q62.1 0.25 59.1-1.25L59.1-1.25 59.1-5.9Q62.6-3.75 66.35-3.75L66.35-3.75Q68.3-3.75 69.37-4.55 70.45-5.35 70.45-6.65L70.45-6.65Q70.45-7.75 69.6-8.63 68.75-9.5 67.87-9.93 67-10.35 64.9-11.25L64.9-11.25Q58.95-13.7 58.95-18.45L58.95-18.45Q58.95-21.8 61.45-23.7 63.95-25.6 67.7-25.6L67.7-25.6Q71.8-25.6 74.1-24.5L74.1-24.5 74.1-20.05Q71.65-21.5 67.8-21.5L67.8-21.5Q66.05-21.5 65.02-20.7 64-19.9 64-18.6L64-18.6Q64-18.25 64.07-17.93 64.15-17.6 64.35-17.28 64.55-16.95 64.72-16.73 64.9-16.5 65.3-16.25 65.7-16 65.92-15.83 66.15-15.65 66.67-15.4 67.2-15.15 67.45-15.03 67.7-14.9 68.32-14.63 68.95-14.35 69.2-14.25L69.2-14.25Q72.15-12.95 73.82-11.33 75.5-9.7 75.5-7ZM101.54-17L101.54 0 96.64 0 96.64-16Q96.64-18.6 95.32-20.03 93.99-21.45 91.84-21.45L91.84-21.45Q89.34-21.45 87.42-19.55 85.49-17.65 85.49-13.75L85.49-13.75 85.49 0 80.59 0 80.59-35.35 85.49-35.35 85.49-21Q87.64-25.7 93.34-25.7L93.34-25.7Q97.04-25.7 99.29-23.4 101.54-21.1 101.54-17L101.54-17ZM116.34-3.65L116.34-3.65Q118.74-3.65 120.12-4.98 121.49-6.3 121.49-8.45L121.49-8.45 121.49-11.3 117.69-11.3Q114.89-11.3 113.47-10.2 112.04-9.1 112.04-7.4L112.04-7.4Q112.04-5.65 113.14-4.65 114.24-3.65 116.34-3.65ZM121.64 0L121.64-3Q119.69 0.2 114.79 0.2L114.79 0.2Q111.19 0.2 109.02-1.88 106.84-3.95 106.84-7.15L106.84-7.15Q106.84-10.8 109.59-12.83 112.34-14.85 117.29-14.85L117.29-14.85 121.49-14.85 121.49-16.3Q121.49-18.9 120.24-20.23 118.99-21.55 116.09-21.55L116.09-21.55Q112.04-21.55 108.74-19.3L108.74-19.3 108.74-24.05Q111.69-25.75 116.54-25.75L116.54-25.75Q126.49-25.75 126.49-16.1L126.49-16.1 126.49 0 121.64 0ZM154.39-25.35L145.19 0 139.59 0 130.59-25.35 135.74-25.35 139.19-14.65Q140.39-10.95 141.21-8.25 142.04-5.55 142.24-4.7L142.24-4.7 142.44-3.85Q142.89-6.3 145.74-14.65L145.74-14.65 149.29-25.35 154.39-25.35ZM178.94-9.2L178.94-9.2Q178.94-4.75 175.79-2.2 172.64 0.35 167.64 0.35L167.64 0.35Q162.09 0.35 158.44-1.8L158.44-1.8 158.44-7.15Q162.39-4.2 167.59-4.2L167.59-4.2Q170.34-4.2 171.94-5.48 173.54-6.75 173.54-9L173.54-9Q173.54-10.35 172.59-11.48 171.64-12.6 170.54-13.18 169.44-13.75 167.24-14.75L167.24-14.75Q165.94-15.35 165.41-15.6 164.89-15.85 163.69-16.5 162.49-17.15 161.91-17.6 161.34-18.05 160.49-18.85 159.64-19.65 159.26-20.45 158.89-21.25 158.56-22.33 158.24-23.4 158.24-24.65L158.24-24.65Q158.24-28.95 161.36-31.45 164.49-33.95 169.44-33.95L169.44-33.95Q173.99-33.95 177.19-32.35L177.19-32.35 177.19-27.25Q173.84-29.35 169.59-29.35L169.59-29.35Q166.84-29.35 165.26-28.13 163.69-26.9 163.69-24.9 163.69-22.9 165.24-21.7 166.79-20.5 169.99-19.1L169.99-19.1Q172.09-18.2 173.26-17.55 174.44-16.9 175.96-15.73 177.49-14.55 178.21-12.93 178.94-11.3 178.94-9.2ZM204.38-22.03Q207.53-18.35 207.53-12.65 207.53-6.95 204.31-3.25 201.08 0.45 195.43 0.45L195.43 0.45Q189.83 0.45 186.63-3.2 183.43-6.85 183.43-12.45L183.43-12.45Q183.43-18.15 186.73-21.93 190.03-25.7 195.43-25.7L195.43-25.7Q201.23-25.7 204.38-22.03ZM188.53-12.6L188.53-12.6Q188.53-8.85 190.38-6.28 192.23-3.7 195.43-3.7L195.43-3.7Q198.83-3.7 200.61-6.2 202.38-8.7 202.38-12.55L202.38-12.55Q202.38-16.5 200.68-19.03 198.98-21.55 195.38-21.55L195.38-21.55Q192.13-21.55 190.33-18.98 188.53-16.4 188.53-12.6ZM225.38-25.35L225.38-21.55 220.03-21.55 220.03 0 215.13 0 215.13-21.55 211.08-21.55 211.08-25.35 215.13-25.35 215.13-27.3Q215.13-31.25 217.26-33.52 219.38-35.8 223.23-35.8L223.23-35.8Q224.63-35.8 226.08-35.4L226.08-35.4 226.08-31.1Q224.93-31.6 223.68-31.6L223.68-31.6Q220.03-31.6 220.03-27.25L220.03-27.25 220.03-25.35 225.38-25.35ZM243.03-5.05L243.03-0.65Q241.38 0.25 238.98 0.25L238.98 0.25Q231.13 0.25 231.13-7.7L231.13-7.7 231.13-21.55 227.18-21.55 227.18-25.35 231.13-25.35 231.13-31.55 236.08-31.55 236.08-25.35 242.73-25.35 242.73-21.55 236.08-21.55 236.08-7.6Q236.08-3.95 239.58-3.95L239.58-3.95Q241.63-3.95 243.03-5.05L243.03-5.05Z" opacity="1" transform="matrix(1,0,0,1,0,0)" fill="#6b7280" class="undefined-text-0" data-fill-palette-color="primary" id="text-0"></path></svg></g></svg></g><g transform="matrix(1,0,0,1,163.31020800000002,74.02825086716793)"><svg viewBox="0 0 232.20979199999996 20.1865369047195" height="20.1865369047195" width="232.20979199999996"><g transform="matrix(1,0,0,1,0,0)"><svg width="232.20979199999996" viewBox="2.9000000953674316 -38.599998474121094 449.1600036621094 39.04999923706055" height="20.1865369047195" data-palette-color="#97978d"><path d="M15.2 0.35Q11.7 0.35 8.9-0.88 6.1-2.1 4.5-4.35 2.9-6.6 2.9-9.6L2.9-9.6 9-9.6Q9.2-7.35 10.78-5.9 12.35-4.45 15.2-4.45L15.2-4.45Q18.15-4.45 19.8-5.88 21.45-7.3 21.45-9.55L21.45-9.55Q21.45-11.3 20.43-12.4 19.4-13.5 17.88-14.1 16.35-14.7 13.65-15.4L13.65-15.4Q10.25-16.3 8.13-17.23 6-18.15 4.5-20.1 3-22.05 3-25.3L3-25.3Q3-28.3 4.5-30.55 6-32.8 8.7-34 11.4-35.2 14.95-35.2L14.95-35.2Q20-35.2 23.23-32.68 26.45-30.15 26.8-25.75L26.8-25.75 20.5-25.75Q20.35-27.65 18.7-29 17.05-30.35 14.35-30.35L14.35-30.35Q11.9-30.35 10.35-29.1 8.8-27.85 8.8-25.5L8.8-25.5Q8.8-23.9 9.78-22.88 10.75-21.85 12.25-21.25 13.75-20.65 16.35-19.95L16.35-19.95Q19.8-19 21.98-18.05 24.15-17.1 25.68-15.13 27.2-13.15 27.2-9.85L27.2-9.85Q27.2-7.2 25.78-4.85 24.35-2.5 21.63-1.07 18.9 0.35 15.2 0.35L15.2 0.35ZM45.9 0.45Q42 0.45 38.85-1.33 35.7-3.1 33.9-6.33 32.1-9.55 32.1-13.8L32.1-13.8Q32.1-18 33.95-21.25 35.8-24.5 39-26.25 42.2-28 46.15-28L46.15-28Q50.1-28 53.3-26.25 56.5-24.5 58.35-21.25 60.2-18 60.2-13.8L60.2-13.8Q60.2-9.6 58.3-6.35 56.4-3.1 53.12-1.33 49.85 0.45 45.9 0.45L45.9 0.45ZM45.9-4.5Q48.1-4.5 50.02-5.55 51.95-6.6 53.15-8.7 54.35-10.8 54.35-13.8L54.35-13.8Q54.35-16.8 53.2-18.88 52.05-20.95 50.15-22 48.25-23.05 46.05-23.05L46.05-23.05Q43.85-23.05 41.97-22 40.1-20.95 39-18.88 37.9-16.8 37.9-13.8L37.9-13.8Q37.9-9.35 40.17-6.93 42.45-4.5 45.9-4.5L45.9-4.5ZM77.4-27.55L77.4-22.9 72.3-22.9 72.3 0 66.55 0 66.55-22.9 63.3-22.9 63.3-27.55 66.55-27.55 66.55-29.5Q66.55-34.25 69.07-36.43 71.59-38.6 77-38.6L77-38.6 77-33.85Q74.4-33.85 73.34-32.88 72.3-31.9 72.3-29.5L72.3-29.5 72.3-27.55 77.4-27.55ZM95.79-22.9L89.09-22.9 89.09-7.65Q89.09-6.1 89.82-5.43 90.54-4.75 92.29-4.75L92.29-4.75 95.79-4.75 95.79 0 91.29 0Q87.44 0 85.39-1.8 83.34-3.6 83.34-7.65L83.34-7.65 83.34-22.9 80.09-22.9 80.09-27.55 83.34-27.55 83.34-34.4 89.09-34.4 89.09-27.55 95.79-27.55 95.79-22.9ZM132.44-27.55L138.04-27.55 129.49 0 123.49 0 117.94-20.35 112.39 0 106.39 0 97.79-27.55 103.59-27.55 109.34-5.4 115.19-27.55 121.14-27.55 126.74-5.5 132.44-27.55ZM140.39-13.9Q140.39-18.05 142.11-21.25 143.84-24.45 146.81-26.23 149.79-28 153.39-28L153.39-28Q156.64-28 159.06-26.73 161.49-25.45 162.94-23.55L162.94-23.55 162.94-27.55 168.69-27.55 168.69 0 162.94 0 162.94-4.1Q161.49-2.15 158.99-0.85 156.49 0.45 153.29 0.45L153.29 0.45Q149.74 0.45 146.79-1.38 143.84-3.2 142.11-6.48 140.39-9.75 140.39-13.9L140.39-13.9ZM162.94-13.8Q162.94-16.65 161.76-18.75 160.59-20.85 158.69-21.95 156.79-23.05 154.59-23.05L154.59-23.05Q152.39-23.05 150.49-21.98 148.59-20.9 147.41-18.82 146.24-16.75 146.24-13.9L146.24-13.9Q146.24-11.05 147.41-8.9 148.59-6.75 150.51-5.63 152.44-4.5 154.59-4.5L154.59-4.5Q156.79-4.5 158.69-5.6 160.59-6.7 161.76-8.83 162.94-10.95 162.94-13.8L162.94-13.8ZM181.89-23.55Q183.14-25.65 185.21-26.83 187.29-28 190.14-28L190.14-28 190.14-22.1 188.69-22.1Q185.34-22.1 183.61-20.4 181.89-18.7 181.89-14.5L181.89-14.5 181.89 0 176.19 0 176.19-27.55 181.89-27.55 181.89-23.55ZM220.63-14.45Q220.63-12.9 220.43-11.65L220.43-11.65 199.38-11.65Q199.63-8.35 201.83-6.35 204.03-4.35 207.23-4.35L207.23-4.35Q211.83-4.35 213.73-8.2L213.73-8.2 219.88-8.2Q218.63-4.4 215.36-1.98 212.08 0.45 207.23 0.45L207.23 0.45Q203.28 0.45 200.16-1.33 197.03-3.1 195.26-6.33 193.48-9.55 193.48-13.8L193.48-13.8Q193.48-18.05 195.21-21.28 196.93-24.5 200.06-26.25 203.18-28 207.23-28L207.23-28Q211.13-28 214.18-26.3 217.23-24.6 218.93-21.53 220.63-18.45 220.63-14.45L220.63-14.45ZM199.43-16.25L214.68-16.25Q214.63-19.4 212.43-21.3 210.23-23.2 206.98-23.2L206.98-23.2Q204.03-23.2 201.93-21.33 199.83-19.45 199.43-16.25L199.43-16.25ZM237.33-17.45Q237.33-22.55 239.7-26.6 242.08-30.65 246.15-32.93 250.23-35.2 255.08-35.2L255.08-35.2Q260.63-35.2 264.95-32.48 269.28-29.75 271.23-24.75L271.23-24.75 264.38-24.75Q263.03-27.5 260.63-28.85 258.23-30.2 255.08-30.2L255.08-30.2Q251.63-30.2 248.93-28.65 246.23-27.1 244.7-24.2 243.18-21.3 243.18-17.45L243.18-17.45Q243.18-13.6 244.7-10.7 246.23-7.8 248.93-6.23 251.63-4.65 255.08-4.65L255.08-4.65Q258.23-4.65 260.63-6 263.03-7.35 264.38-10.1L264.38-10.1 271.23-10.1Q269.28-5.1 264.95-2.4 260.63 0.3 255.08 0.3L255.08 0.3Q250.18 0.3 246.13-1.98 242.08-4.25 239.7-8.3 237.33-12.35 237.33-17.45L237.33-17.45ZM283.58-23.55Q284.83-25.65 286.9-26.83 288.98-28 291.83-28L291.83-28 291.83-22.1 290.38-22.1Q287.03-22.1 285.3-20.4 283.58-18.7 283.58-14.5L283.58-14.5 283.58 0 277.88 0 277.88-27.55 283.58-27.55 283.58-23.55ZM322.32-14.45Q322.32-12.9 322.12-11.65L322.12-11.65 301.07-11.65Q301.32-8.35 303.52-6.35 305.72-4.35 308.92-4.35L308.92-4.35Q313.52-4.35 315.42-8.2L315.42-8.2 321.57-8.2Q320.32-4.4 317.05-1.98 313.77 0.45 308.92 0.45L308.92 0.45Q304.97 0.45 301.85-1.33 298.72-3.1 296.95-6.33 295.17-9.55 295.17-13.8L295.17-13.8Q295.17-18.05 296.9-21.28 298.62-24.5 301.75-26.25 304.87-28 308.92-28L308.92-28Q312.82-28 315.87-26.3 318.92-24.6 320.62-21.53 322.32-18.45 322.32-14.45L322.32-14.45ZM301.12-16.25L316.37-16.25Q316.32-19.4 314.12-21.3 311.92-23.2 308.67-23.2L308.67-23.2Q305.72-23.2 303.62-21.33 301.52-19.45 301.12-16.25L301.12-16.25ZM326.02-13.9Q326.02-18.05 327.75-21.25 329.47-24.45 332.45-26.23 335.42-28 339.02-28L339.02-28Q342.27-28 344.7-26.73 347.12-25.45 348.57-23.55L348.57-23.55 348.57-27.55 354.32-27.55 354.32 0 348.57 0 348.57-4.1Q347.12-2.15 344.62-0.85 342.12 0.45 338.92 0.45L338.92 0.45Q335.37 0.45 332.42-1.38 329.47-3.2 327.75-6.48 326.02-9.75 326.02-13.9L326.02-13.9ZM348.57-13.8Q348.57-16.65 347.4-18.75 346.22-20.85 344.32-21.95 342.42-23.05 340.22-23.05L340.22-23.05Q338.02-23.05 336.12-21.98 334.22-20.9 333.05-18.82 331.87-16.75 331.87-13.9L331.87-13.9Q331.87-11.05 333.05-8.9 334.22-6.75 336.15-5.63 338.07-4.5 340.22-4.5L340.22-4.5Q342.42-4.5 344.32-5.6 346.22-6.7 347.4-8.83 348.57-10.95 348.57-13.8L348.57-13.8ZM375.17-22.9L368.47-22.9 368.47-7.65Q368.47-6.1 369.19-5.43 369.92-4.75 371.67-4.75L371.67-4.75 375.17-4.75 375.17 0 370.67 0Q366.82 0 364.77-1.8 362.72-3.6 362.72-7.65L362.72-7.65 362.72-22.9 359.47-22.9 359.47-27.55 362.72-27.55 362.72-34.4 368.47-34.4 368.47-27.55 375.17-27.55 375.17-22.9ZM392.37 0.45Q388.47 0.45 385.32-1.33 382.17-3.1 380.37-6.33 378.57-9.55 378.57-13.8L378.57-13.8Q378.57-18 380.42-21.25 382.27-24.5 385.47-26.25 388.67-28 392.62-28L392.62-28Q396.57-28 399.77-26.25 402.97-24.5 404.82-21.25 406.67-18 406.67-13.8L406.67-13.8Q406.67-9.6 404.77-6.35 402.87-3.1 399.59-1.33 396.32 0.45 392.37 0.45L392.37 0.45ZM392.37-4.5Q394.57-4.5 396.49-5.55 398.42-6.6 399.62-8.7 400.82-10.8 400.82-13.8L400.82-13.8Q400.82-16.8 399.67-18.88 398.52-20.95 396.62-22 394.72-23.05 392.52-23.05L392.52-23.05Q390.32-23.05 388.44-22 386.57-20.95 385.47-18.88 384.37-16.8 384.37-13.8L384.37-13.8Q384.37-9.35 386.64-6.93 388.92-4.5 392.37-4.5L392.37-4.5ZM418.01-23.55Q419.26-25.65 421.34-26.83 423.41-28 426.26-28L426.26-28 426.26-22.1 424.81-22.1Q421.46-22.1 419.74-20.4 418.01-18.7 418.01-14.5L418.01-14.5 418.01 0 412.31 0 412.31-27.55 418.01-27.55 418.01-23.55ZM441.51 0.45Q438.26 0.45 435.69-0.73 433.11-1.9 431.61-3.93 430.11-5.95 430.01-8.45L430.01-8.45 435.91-8.45Q436.06-6.7 437.59-5.53 439.11-4.35 441.41-4.35L441.41-4.35Q443.81-4.35 445.14-5.28 446.46-6.2 446.46-7.65L446.46-7.65Q446.46-9.2 444.99-9.95 443.51-10.7 440.31-11.6L440.31-11.6Q437.21-12.45 435.26-13.25 433.31-14.05 431.89-15.7 430.46-17.35 430.46-20.05L430.46-20.05Q430.46-22.25 431.76-24.08 433.06-25.9 435.49-26.95 437.91-28 441.06-28L441.06-28Q445.76-28 448.64-25.63 451.51-23.25 451.71-19.15L451.71-19.15 446.01-19.15Q445.86-21 444.51-22.1 443.16-23.2 440.86-23.2L440.86-23.2Q438.61-23.2 437.41-22.35 436.21-21.5 436.21-20.1L436.21-20.1Q436.21-19 437.01-18.25 437.81-17.5 438.96-17.07 440.11-16.65 442.36-16L442.36-16Q445.36-15.2 447.29-14.38 449.21-13.55 450.61-11.95 452.01-10.35 452.06-7.7L452.06-7.7Q452.06-5.35 450.76-3.5 449.46-1.65 447.09-0.6 444.71 0.45 441.51 0.45L441.51 0.45Z" opacity="1" transform="matrix(1,0,0,1,0,0)" fill="#97978d" class="undefined-text-1" data-fill-palette-color="secondary" id="text-1"></path></svg></g></svg></g></svg></g></svg></g><g transform="matrix(1,0,0,1,409.65852655639094,0)"><svg viewBox="0 0 130.20483670074844 130.20483670074844" height="130.20483670074844" width="130.20483670074844"><g data-palette-color="#97978d"><rect width="35.58932203153791" height="130.20483670074844" fill="#97978d" stroke="transparent" data-fill-palette-color="accent" x="0" fill-opacity="1"></rect><rect width="35.58932203153791" height="130.20483670074844" fill="#97978d" stroke="transparent" data-fill-palette-color="accent" x="43.40161223358282" fill-opacity="0.75"></rect><rect width="35.58932203153791" height="130.20483670074844" fill="#97978d" stroke="transparent" data-fill-palette-color="accent" x="86.80322446716563" fill-opacity="0.5"></rect></g></svg></g></svg></g><defs></defs></svg><rect width="395.52" height="95.39194640135452" fill="none" stroke="none" visibility="hidden"></rect></g></svg></g></svg>