<svg xmlns="http://www.w3.org/2000/svg" version="1.1" xmlns:xlink="http://www.w3.org/1999/xlink" xmlns:svgjs="http://svgjs.dev/svgjs" viewBox="0 0 11.798299969565111 3.0846845939985297"><g transform="matrix(1,0,0,1,3.052319062261987,0.5293445697265378)"><g><path d=" M 0.6825 1.146 L 0.252 0.6689999999999998 L 0.252 1.146 L 0.1155 1.146 L 0.1155 0.10049999999999981 L 0.252 0.10049999999999981 L 0.252 0.5849999999999999 L 0.684 0.10049999999999981 L 0.8565 0.10049999999999981 L 0.3825 0.6239999999999999 L 0.861 1.146 L 0.6825 1.146 Z M 1.75499853515625 0.7859999999999999 L 1.09799853515625 0.7859999999999999 Q 1.10549853515625 0.9074999999999999 1.18124853515625 0.9757499999999999 Q 1.25699853515625 1.0439999999999998 1.3649985351562501 1.0439999999999998 Q 1.4534985351562502 1.0439999999999998 1.5127485351562502 1.0027499999999998 Q 1.5719985351562502 0.9614999999999999 1.5959985351562502 0.8924999999999998 L 1.74299853515625 0.8924999999999998 Q 1.70999853515625 1.011 1.61099853515625 1.0852499999999998 Q 1.5119985351562502 1.1595 1.3649985351562501 1.1595 Q 1.24799853515625 1.1595 1.15574853515625 1.107 Q 1.06349853515625 1.0545 1.01099853515625 0.9577499999999999 Q 0.95849853515625 0.8609999999999999 0.95849853515625 0.7334999999999998 Q 0.95849853515625 0.6059999999999999 1.00949853515625 0.5099999999999999 Q 1.0604985351562501 0.4139999999999999 1.15274853515625 0.36224999999999985 Q 1.24499853515625 0.3104999999999999 1.3649985351562501 0.3104999999999999 Q 1.48199853515625 0.3104999999999999 1.5719985351562502 0.36149999999999993 Q 1.66199853515625 0.41249999999999987 1.7107485351562501 0.5017499999999999 Q 1.7594985351562502 0.5909999999999999 1.7594985351562502 0.7034999999999999 Q 1.7594985351562502 0.7424999999999999 1.75499853515625 0.7859999999999999 Z M 1.5839985351562502 0.5407499999999998 Q 1.54949853515625 0.48449999999999993 1.4902485351562502 0.45524999999999993 Q 1.4309985351562502 0.42599999999999993 1.3589985351562501 0.42599999999999993 Q 1.25549853515625 0.42599999999999993 1.1827485351562501 0.4919999999999999 Q 1.10999853515625 0.5579999999999999 1.09949853515625 0.6749999999999998 L 1.6184985351562502 0.6749999999999998 Q 1.6184985351562502 0.5969999999999999 1.5839985351562502 0.5407499999999998 Z M 2.0564912109375 1.1272499999999999 Q 1.9814912109375 1.095 1.9379912109375002 1.03725 Q 1.8944912109375 0.9794999999999999 1.8899912109375 0.9044999999999999 L 2.0309912109375 0.9044999999999999 Q 2.0369912109375 0.966 2.0887412109375 1.005 Q 2.1404912109375003 1.0439999999999998 2.2244912109375 1.0439999999999998 Q 2.3024912109375 1.0439999999999998 2.3474912109375 1.0094999999999998 Q 2.3924912109375 0.9749999999999999 2.3924912109375 0.9224999999999999 Q 2.3924912109375 0.8684999999999998 2.3444912109375 0.8422499999999999 Q 2.2964912109375 0.8159999999999998 2.1959912109375 0.7905 Q 2.1044912109375002 0.7665 2.0467412109375003 0.7417499999999999 Q 1.9889912109375 0.7169999999999999 1.9477412109375 0.6682499999999999 Q 1.9064912109375 0.6194999999999999 1.9064912109375 0.5399999999999999 Q 1.9064912109375 0.47699999999999987 1.9439912109375002 0.4244999999999999 Q 1.9814912109375 0.3719999999999999 2.0504912109375 0.34124999999999994 Q 2.1194912109375 0.3104999999999999 2.2079912109375 0.3104999999999999 Q 2.3444912109375 0.3104999999999999 2.4284912109375 0.37949999999999984 Q 2.5124912109375 0.4484999999999999 2.5184912109375004 0.5684999999999999 L 2.3819912109375 0.5684999999999999 Q 2.3774912109375004 0.5039999999999999 2.3302412109375004 0.46499999999999986 Q 2.2829912109375003 0.42599999999999993 2.2034912109375 0.42599999999999993 Q 2.1299912109375 0.42599999999999993 2.0864912109375 0.4574999999999999 Q 2.0429912109375 0.4889999999999999 2.0429912109375 0.5399999999999999 Q 2.0429912109375 0.5804999999999999 2.0692412109375002 0.6067499999999999 Q 2.0954912109375003 0.6329999999999999 2.1352412109375 0.6487499999999999 Q 2.1749912109375003 0.6644999999999999 2.2454912109375003 0.6839999999999999 Q 2.3339912109375 0.708 2.3894912109375 0.73125 Q 2.4449912109375003 0.7545 2.4847412109375 0.8009999999999999 Q 2.5244912109375 0.8474999999999999 2.5259912109375002 0.9224999999999999 Q 2.5259912109375002 0.9899999999999999 2.4884912109375 1.0439999999999998 Q 2.4509912109375 1.0979999999999999 2.3827412109375 1.12875 Q 2.3144912109375 1.1595 2.2259912109375 1.1595 Q 2.1314912109375 1.1595 2.0564912109375 1.1272499999999999 Z M 3.2894501953125004 0.3487499999999999 Q 3.3644501953125006 0.38849999999999985 3.4072001953125004 0.46799999999999986 Q 3.4499501953125002 0.5474999999999999 3.4499501953125002 0.6615 L 3.4499501953125002 1.146 L 3.3149501953125005 1.146 L 3.3149501953125005 0.6809999999999998 Q 3.3149501953125005 0.5579999999999999 3.2534501953125003 0.4927499999999999 Q 3.1919501953125002 0.4274999999999999 3.0854501953125 0.4274999999999999 Q 2.9774501953125005 0.4274999999999999 2.9137001953125004 0.4949999999999999 Q 2.8499501953125 0.5624999999999999 2.8499501953125 0.6914999999999999 L 2.8499501953125 1.146 L 2.7134501953125003 1.146 L 2.7134501953125003 0.03599999999999981 L 2.8499501953125 0.03599999999999981 L 2.8499501953125 0.44099999999999995 Q 2.8904501953125004 0.3779999999999999 2.9617001953125004 0.3434999999999999 Q 3.0329501953125004 0.30899999999999994 3.1214501953125002 0.30899999999999994 Q 3.2144501953125006 0.30899999999999994 3.2894501953125004 0.3487499999999999 Z M 3.668880615234375 0.5107499999999999 Q 3.7198806152343753 0.41549999999999987 3.809130615234375 0.3629999999999999 Q 3.8983806152343754 0.3104999999999999 4.0078806152343756 0.3104999999999999 Q 4.115880615234375 0.3104999999999999 4.1953806152343756 0.3569999999999999 Q 4.274880615234375 0.40349999999999986 4.313880615234376 0.47399999999999987 L 4.313880615234376 0.32399999999999984 L 4.4518806152343755 0.32399999999999984 L 4.4518806152343755 1.146 L 4.313880615234376 1.146 L 4.313880615234376 0.9929999999999999 Q 4.273380615234375 1.065 4.1931306152343755 1.11225 Q 4.112880615234375 1.1595 4.0063806152343755 1.1595 Q 3.8968806152343753 1.1595 3.808380615234375 1.1055 Q 3.7198806152343753 1.0514999999999999 3.668880615234375 0.954 Q 3.617880615234375 0.8564999999999999 3.617880615234375 0.7319999999999999 Q 3.617880615234375 0.6059999999999999 3.668880615234375 0.5107499999999999 Z M 4.276380615234375 0.5714999999999999 Q 4.238880615234375 0.5025 4.175130615234375 0.4657499999999999 Q 4.111380615234375 0.42899999999999994 4.034880615234375 0.42899999999999994 Q 3.9583806152343755 0.42899999999999994 3.8953806152343753 0.46499999999999986 Q 3.832380615234375 0.5009999999999999 3.794880615234375 0.5699999999999998 Q 3.7573806152343754 0.6389999999999999 3.7573806152343754 0.7319999999999999 Q 3.7573806152343754 0.8264999999999999 3.794880615234375 0.8962499999999999 Q 3.832380615234375 0.966 3.8953806152343753 1.0027499999999998 Q 3.9583806152343755 1.0394999999999999 4.034880615234375 1.0394999999999999 Q 4.111380615234375 1.0394999999999999 4.175130615234375 1.0027499999999998 Q 4.238880615234375 0.966 4.276380615234375 0.8962499999999999 Q 4.313880615234376 0.8264999999999999 4.313880615234376 0.7334999999999998 Q 4.313880615234376 0.6404999999999998 4.276380615234375 0.5714999999999999 Z M 4.9843271484375 1.02 L 5.2393271484375 0.32399999999999984 L 5.3848271484375 0.32399999999999984 L 5.0623271484375 1.146 L 4.9033271484375 1.146 L 4.5808271484375 0.32399999999999984 L 4.7278271484375 0.32399999999999984 L 4.9843271484375 1.02 Z M 5.661538330078125 1.1197499999999998 Q 5.579788330078125 1.083 5.533288330078125 1.01775 Q 5.486788330078125 0.9524999999999999 5.4852883300781246 0.8669999999999999 L 5.630788330078125 0.8669999999999999 Q 5.638288330078125 0.9404999999999999 5.691538330078125 0.9907499999999999 Q 5.744788330078125 1.041 5.846788330078125 1.041 Q 5.944288330078125 1.041 6.0005383300781245 0.9922499999999999 Q 6.056788330078125 0.9434999999999999 6.056788330078125 0.8669999999999999 Q 6.056788330078125 0.8069999999999999 6.0237883300781245 0.7694999999999999 Q 5.990788330078125 0.7319999999999999 5.941288330078125 0.7124999999999999 Q 5.891788330078125 0.6929999999999998 5.807788330078125 0.6704999999999999 Q 5.704288330078125 0.6434999999999998 5.642038330078125 0.6164999999999999 Q 5.579788330078125 0.5894999999999999 5.535538330078125 0.53175 Q 5.491288330078125 0.47399999999999987 5.491288330078125 0.37649999999999995 Q 5.491288330078125 0.2909999999999999 5.534788330078125 0.22499999999999987 Q 5.5782883300781245 0.15899999999999992 5.657038330078125 0.12299999999999978 Q 5.735788330078125 0.08699999999999997 5.837788330078125 0.08699999999999997 Q 5.984788330078125 0.08699999999999997 6.078538330078125 0.16049999999999986 Q 6.172288330078125 0.23399999999999987 6.184288330078125 0.3554999999999999 L 6.034288330078125 0.3554999999999999 Q 6.026788330078125 0.2954999999999999 5.971288330078125 0.24974999999999992 Q 5.915788330078125 0.20399999999999985 5.824288330078125 0.20399999999999985 Q 5.738788330078125 0.20399999999999985 5.684788330078125 0.24824999999999986 Q 5.630788330078125 0.29249999999999987 5.630788330078125 0.3719999999999999 Q 5.630788330078125 0.42899999999999994 5.663038330078125 0.46499999999999986 Q 5.6952883300781245 0.5009999999999999 5.7425383300781245 0.5197499999999999 Q 5.7897883300781245 0.5384999999999999 5.875288330078125 0.5624999999999999 Q 5.978788330078125 0.5909999999999999 6.041788330078125 0.6187499999999999 Q 6.104788330078125 0.6464999999999999 6.149788330078125 0.7042499999999998 Q 6.194788330078125 0.7619999999999999 6.194788330078125 0.8609999999999999 Q 6.194788330078125 0.9374999999999999 6.154288330078125 1.005 Q 6.113788330078124 1.0725 6.034288330078125 1.1144999999999998 Q 5.954788330078125 1.1564999999999999 5.846788330078125 1.1564999999999999 Q 5.743288330078125 1.1564999999999999 5.661538330078125 1.1197499999999998 Z M 6.5405009765625 1.107 Q 6.4467509765625 1.0545 6.3935009765625 0.9577499999999999 Q 6.3402509765624995 0.8609999999999999 6.3402509765624995 0.7334999999999998 Q 6.3402509765624995 0.6074999999999999 6.3950009765625 0.5107499999999999 Q 6.4497509765625 0.4139999999999999 6.5442509765625 0.36224999999999985 Q 6.6387509765625 0.3104999999999999 6.755750976562499 0.3104999999999999 Q 6.8727509765625 0.3104999999999999 6.9672509765625 0.36224999999999985 Q 7.0617509765625 0.4139999999999999 7.1165009765625 0.5099999999999999 Q 7.1712509765625 0.6059999999999999 7.1712509765625 0.7334999999999998 Q 7.1712509765625 0.8609999999999999 7.1150009765624995 0.9577499999999999 Q 7.0587509765625 1.0545 6.9627509765625 1.107 Q 6.8667509765625 1.1595 6.7497509765625 1.1595 Q 6.6342509765625 1.1595 6.5405009765625 1.107 Z M 6.8877509765625 1.005 Q 6.9522509765625 0.9704999999999999 6.992000976562499 0.9015 Q 7.0317509765625 0.8324999999999999 7.0317509765625 0.7334999999999998 Q 7.0317509765625 0.6344999999999998 6.992750976562499 0.5654999999999999 Q 6.9537509765625 0.49649999999999994 6.8907509765625 0.4627499999999999 Q 6.8277509765625 0.42899999999999994 6.7542509765625 0.42899999999999994 Q 6.6792509765625 0.42899999999999994 6.617000976562499 0.4627499999999999 Q 6.5547509765625 0.49649999999999994 6.5172509765625 0.5654999999999999 Q 6.479750976562499 0.6344999999999998 6.479750976562499 0.7334999999999998 Q 6.479750976562499 0.8339999999999999 6.5165009765625 0.9029999999999999 Q 6.5532509765624996 0.9719999999999999 6.6147509765625 1.00575 Q 6.6762509765625 1.0394999999999999 6.7497509765625 1.0394999999999999 Q 6.8232509765625 1.0394999999999999 6.8877509765625 1.005 Z M 7.681181396484375 0.4364999999999999 L 7.508681396484374 0.4364999999999999 L 7.508681396484374 1.146 L 7.3721813964843745 1.146 L 7.3721813964843745 0.4364999999999999 L 7.265681396484375 0.4364999999999999 L 7.265681396484375 0.32399999999999984 L 7.3721813964843745 0.32399999999999984 L 7.3721813964843745 0.26549999999999985 Q 7.3721813964843745 0.12749999999999995 7.443431396484375 0.06374999999999997 Q 7.514681396484375 -2.220446049250313e-16 7.672181396484374 -2.220446049250313e-16 L 7.672181396484374 0.11399999999999988 Q 7.5821813964843745 0.11399999999999988 7.545431396484375 0.14924999999999988 Q 7.508681396484374 0.1844999999999999 7.508681396484374 0.26549999999999985 L 7.508681396484374 0.32399999999999984 L 7.681181396484375 0.32399999999999984 L 7.681181396484375 0.4364999999999999 Z M 8.002150634765623 0.4364999999999999 L 8.002150634765623 0.9209999999999999 Q 8.002150634765623 0.9809999999999999 8.027650634765624 1.00575 Q 8.053150634765624 1.0305 8.116150634765624 1.0305 L 8.216650634765625 1.0305 L 8.216650634765625 1.146 L 8.093650634765625 1.146 Q 7.979650634765624 1.146 7.922650634765624 1.0935 Q 7.8656506347656245 1.041 7.8656506347656245 0.9209999999999999 L 7.8656506347656245 0.4364999999999999 L 7.759150634765624 0.4364999999999999 L 7.759150634765624 0.32399999999999984 L 7.8656506347656245 0.32399999999999984 L 7.8656506347656245 0.11699999999999999 L 8.002150634765623 0.11699999999999999 L 8.002150634765623 0.32399999999999984 L 8.216650634765625 0.32399999999999984 L 8.216650634765625 0.4364999999999999 L 8.002150634765623 0.4364999999999999 Z" fill="#262626" fill-rule="nonzero"></path></g><g><path d=" M 0.2127272727272727 2.032813636363636 Q 0.15340909090909088 2.032813636363636 0.11318181818181818 2.014404545454545 Q 0.07295454545454545 1.9959954545454541 0.051477272727272726 1.9670181818181813 Q 0.03 1.9380409090909088 0.028636363636363633 1.905995454545454 Q 0.028636363636363633 1.9005409090909087 0.033068181818181816 1.8961090909090905 Q 0.0375 1.8916772727272724 0.04363636363636363 1.8916772727272724 L 0.0784090909090909 1.8916772727272724 Q 0.08659090909090908 1.8916772727272724 0.09068181818181817 1.8957681818181815 Q 0.09477272727272726 1.8998590909090904 0.09613636363636363 1.905313636363636 Q 0.10022727272727272 1.9216772727272724 0.11318181818181818 1.9376999999999995 Q 0.12613636363636363 1.9537227272727269 0.15034090909090908 1.9642909090909086 Q 0.17454545454545453 1.9748590909090906 0.2127272727272727 1.9748590909090906 Q 0.27136363636363636 1.9748590909090906 0.2989772727272727 1.954063636363636 Q 0.32659090909090904 1.9332681818181814 0.32659090909090904 1.8984954545454542 Q 0.32659090909090904 1.8746318181818178 0.31193181818181814 1.8599727272727269 Q 0.29727272727272724 1.845313636363636 0.2672727272727273 1.8337227272727268 Q 0.23727272727272725 1.8221318181818178 0.18954545454545452 1.8084954545454541 Q 0.13977272727272727 1.7941772727272722 0.10704545454545454 1.7771318181818179 Q 0.07431818181818181 1.7600863636363633 0.05829545454545454 1.7348590909090906 Q 0.04227272727272727 1.7096318181818178 0.04227272727272727 1.6707681818181814 Q 0.04227272727272727 1.6339499999999996 0.06204545454545454 1.604972727272727 Q 0.08181818181818182 1.5759954545454542 0.11931818181818181 1.5589499999999996 Q 0.1568181818181818 1.541904545454545 0.2093181818181818 1.541904545454545 Q 0.2515909090909091 1.541904545454545 0.2832954545454545 1.5531545454545452 Q 0.315 1.5644045454545452 0.3361363636363636 1.583154545454545 Q 0.35727272727272724 1.601904545454545 0.36818181818181817 1.6233818181818178 Q 0.37909090909090903 1.6448590909090905 0.37977272727272726 1.665313636363636 Q 0.37977272727272726 1.6700863636363632 0.37636363636363634 1.6745181818181814 Q 0.3729545454545454 1.6789499999999997 0.3654545454545454 1.6789499999999997 L 0.3293181818181818 1.6789499999999997 Q 0.3245454545454545 1.6789499999999997 0.31943181818181815 1.676222727272727 Q 0.3143181818181818 1.6734954545454541 0.3115909090909091 1.6659954545454543 Q 0.3075 1.6380409090909087 0.2802272727272727 1.6189499999999997 Q 0.25295454545454543 1.5998590909090906 0.2093181818181818 1.5998590909090906 Q 0.16499999999999998 1.5998590909090906 0.1373863636363636 1.616904545454545 Q 0.10977272727272726 1.6339499999999996 0.10977272727272726 1.6700863636363632 Q 0.10977272727272726 1.6932681818181814 0.12272727272727271 1.7086090909090905 Q 0.13568181818181818 1.7239499999999996 0.16363636363636364 1.7355409090909086 Q 0.19159090909090906 1.7471318181818178 0.23659090909090907 1.7600863636363633 Q 0.29113636363636364 1.7750863636363632 0.32590909090909087 1.7917909090909088 Q 0.36068181818181816 1.8084954545454541 0.37738636363636363 1.8333818181818178 Q 0.39409090909090905 1.8582681818181814 0.39409090909090905 1.8971318181818178 Q 0.39409090909090905 1.9400863636363632 0.3715909090909091 1.9704272727272722 Q 0.34909090909090906 2.0007681818181813 0.3085227272727272 2.0167909090909086 Q 0.26795454545454545 2.032813636363636 0.2127272727272727 2.032813636363636 Z M 0.655191983309659 2.032813636363636 Q 0.5965556196732954 2.032813636363636 0.5549647105823863 2.0126999999999997 Q 0.5133738014914773 1.9925863636363632 0.49087380149147725 1.950654545454545 Q 0.4683738014914772 1.908722727272727 0.4656465287642045 1.845313636363636 Q 0.4649647105823863 1.815313636363636 0.4649647105823863 1.7876999999999996 Q 0.4649647105823863 1.7600863636363633 0.4656465287642045 1.7300863636363633 Q 0.4683738014914772 1.6673590909090905 0.49189652876420453 1.6254272727272725 Q 0.5154192560369317 1.5834954545454543 0.55735107421875 1.5626999999999995 Q 0.5992828924005681 1.541904545454545 0.655191983309659 1.541904545454545 Q 0.7104192560369318 1.541904545454545 0.7523510742187499 1.5626999999999995 Q 0.794282892400568 1.5834954545454543 0.8181465287642045 1.6254272727272725 Q 0.8420101651278409 1.6673590909090905 0.8440556196732953 1.7300863636363633 Q 0.8454192560369318 1.7600863636363633 0.8454192560369318 1.7876999999999996 Q 0.8454192560369318 1.815313636363636 0.8440556196732953 1.845313636363636 Q 0.8420101651278409 1.908722727272727 0.8191692560369317 1.950654545454545 Q 0.7963283469460227 1.9925863636363632 0.7547374378551135 2.0126999999999997 Q 0.7131465287642045 2.032813636363636 0.655191983309659 2.032813636363636 Z M 0.655191983309659 1.9748590909090906 Q 0.7070101651278409 1.9748590909090906 0.7400783469460226 1.9434954545454541 Q 0.7731465287642045 1.9121318181818179 0.7758738014914772 1.841904545454545 Q 0.7772374378551136 1.8112227272727268 0.7772374378551136 1.7870181818181814 Q 0.7772374378551136 1.762813636363636 0.7758738014914772 1.732813636363636 Q 0.7745101651278408 1.6857681818181813 0.7584874378551136 1.6564499999999995 Q 0.7424647105823863 1.6271318181818177 0.7158738014914772 1.613495454545454 Q 0.6892828924005681 1.5998590909090906 0.655191983309659 1.5998590909090906 Q 0.6211010742187499 1.5998590909090906 0.5945101651278408 1.613495454545454 Q 0.5679192560369317 1.6271318181818177 0.5518965287642045 1.6564499999999995 Q 0.5358738014914772 1.6857681818181813 0.5338283469460227 1.732813636363636 Q 0.5331465287642045 1.762813636363636 0.5331465287642045 1.7870181818181814 Q 0.5331465287642045 1.8112227272727268 0.5338283469460227 1.841904545454545 Q 0.5365556196732955 1.9121318181818179 0.5699647105823863 1.9434954545454541 Q 0.6033738014914772 1.9748590909090906 0.655191983309659 1.9748590909090906 Z M 0.9606062455610794 2.025995454545454 Q 0.9531062455610795 2.025995454545454 0.9490153364701703 2.021563636363636 Q 0.9449244273792613 2.017131818181818 0.9449244273792613 2.010313636363636 L 0.9449244273792613 1.5650863636363632 Q 0.9449244273792613 1.5575863636363634 0.9490153364701703 1.5531545454545452 Q 0.9531062455610795 1.5487227272727269 0.9606062455610794 1.5487227272727269 L 1.2387880637428976 1.5487227272727269 Q 1.2462880637428977 1.5487227272727269 1.2507198819247158 1.5531545454545452 Q 1.255151700106534 1.5575863636363634 1.255151700106534 1.5650863636363632 L 1.255151700106534 1.5923590909090906 Q 1.255151700106534 1.5998590909090906 1.2507198819247158 1.6039499999999998 Q 1.2462880637428977 1.6080409090909087 1.2387880637428976 1.6080409090909087 L 1.0110607910156248 1.6080409090909087 L 1.0110607910156248 1.7669045454545451 L 1.225151700106534 1.7669045454545451 Q 1.232651700106534 1.7669045454545451 1.2370835182883522 1.7713363636363633 Q 1.2415153364701703 1.7757681818181814 1.2415153364701703 1.7832681818181815 L 1.2415153364701703 1.8105409090909088 Q 1.2415153364701703 1.8173590909090906 1.2370835182883522 1.8217909090909088 Q 1.232651700106534 1.826222727272727 1.225151700106534 1.826222727272727 L 1.0110607910156248 1.826222727272727 L 1.0110607910156248 2.010313636363636 Q 1.0110607910156248 2.017131818181818 1.0066289728338067 2.021563636363636 Q 1.0021971546519886 2.025995454545454 0.9946971546519886 2.025995454545454 L 0.9606062455610794 2.025995454545454 Z M 1.4630955921519884 2.025995454545454 Q 1.4562774103338065 2.025995454545454 1.4518455921519884 2.021563636363636 Q 1.4474137739701702 2.017131818181818 1.4474137739701702 2.010313636363636 L 1.4474137739701702 1.6094045454545451 L 1.3165046830610794 1.6094045454545451 Q 1.3096865012428975 1.6094045454545451 1.3052546830610794 1.604972727272727 Q 1.3008228648792612 1.6005409090909088 1.3008228648792612 1.593722727272727 L 1.3008228648792612 1.5650863636363632 Q 1.3008228648792612 1.5575863636363634 1.3052546830610794 1.5531545454545452 Q 1.3096865012428975 1.5487227272727269 1.3165046830610794 1.5487227272727269 L 1.645141046697443 1.5487227272727269 Q 1.652641046697443 1.5487227272727269 1.6570728648792612 1.5531545454545452 Q 1.6615046830610793 1.5575863636363634 1.6615046830610793 1.5650863636363632 L 1.6615046830610793 1.593722727272727 Q 1.6615046830610793 1.6005409090909088 1.6570728648792612 1.604972727272727 Q 1.652641046697443 1.6094045454545451 1.645141046697443 1.6094045454545451 L 1.5149137739701704 1.6094045454545451 L 1.5149137739701704 2.010313636363636 Q 1.5149137739701704 2.017131818181818 1.510481955788352 2.021563636363636 Q 1.5060501376065338 2.025995454545454 1.498550137606534 2.025995454545454 L 1.4630955921519884 2.025995454545454 Z M 1.8183088822798292 2.025995454545454 Q 1.809445245916193 2.025995454545454 1.8043316095525566 2.021222727272727 Q 1.7992179731889202 2.0164499999999994 1.7971725186434657 2.007586363636363 L 1.7092179731889203 1.5698590909090906 Q 1.708536155007102 1.567131818181818 1.708536155007102 1.5650863636363632 Q 1.708536155007102 1.5630409090909088 1.708536155007102 1.5623590909090905 Q 1.708536155007102 1.5569045454545452 1.7126270640980112 1.552813636363636 Q 1.7167179731889202 1.5487227272727269 1.7221725186434658 1.5487227272727269 L 1.7576270640980112 1.5487227272727269 Q 1.771945245916193 1.5487227272727269 1.7739907004616475 1.560313636363636 L 1.843536155007102 1.9121318181818179 L 1.9171725186434656 1.6707681818181814 Q 1.9192179731889203 1.6646318181818178 1.9243316095525567 1.6595181818181814 Q 1.929445245916193 1.654404545454545 1.9389907004616476 1.654404545454545 L 1.9642179731889202 1.654404545454545 Q 1.974445245916193 1.654404545454545 1.9792179731889203 1.6595181818181814 Q 1.9839907004616475 1.6646318181818178 1.9853543368252837 1.6707681818181814 L 2.059672518643466 1.9121318181818179 L 2.128536155007102 1.560313636363636 Q 2.1305816095525567 1.5487227272727269 2.1455816095525564 1.5487227272727269 L 2.181036155007102 1.5487227272727269 Q 2.1864907004616474 1.5487227272727269 2.1905816095525568 1.552813636363636 Q 2.1946725186434657 1.5569045454545452 2.1946725186434657 1.5623590909090905 Q 2.1946725186434657 1.5630409090909088 2.1943316095525565 1.5650863636363632 Q 2.1939907004616472 1.567131818181818 2.1939907004616472 1.5698590909090906 L 2.106036155007102 2.007586363636363 Q 2.1039907004616474 2.0164499999999994 2.0988770640980112 2.021222727272727 Q 2.0937634277343746 2.025995454545454 2.0848997913707383 2.025995454545454 L 2.0583088822798294 2.025995454545454 Q 2.0487634277343747 2.025995454545454 2.0433088822798293 2.021222727272727 Q 2.037854336825284 2.0164499999999994 2.0358088822798295 2.0089499999999996 L 1.9512634277343748 1.7491772727272723 L 1.8673997913707385 2.0089499999999996 Q 1.8646725186434656 2.0164499999999994 1.8595588822798292 2.021222727272727 Q 1.8544452459161929 2.025995454545454 1.8448997913707383 2.025995454545454 L 1.8183088822798292 2.025995454545454 Z M 2.2334855513139202 2.025995454545454 Q 2.228031005859375 2.025995454545454 2.2239400967684655 2.0219045454545452 Q 2.2198491876775566 2.017813636363636 2.2198491876775566 2.0123590909090905 Q 2.2198491876775566 2.0089499999999996 2.2205310058593746 2.0048590909090906 L 2.389621914950284 1.563722727272727 Q 2.3923491876775564 1.5569045454545452 2.397121914950284 1.552813636363636 Q 2.401894642223011 1.5487227272727269 2.4114400967684655 1.5487227272727269 L 2.457803733132102 1.5487227272727269 Q 2.4673491876775566 1.5487227272727269 2.472121914950284 1.552813636363636 Q 2.476894642223011 1.5569045454545452 2.479621914950284 1.563722727272727 L 2.648031005859375 2.0048590909090906 Q 2.649394642223011 2.0089499999999996 2.649394642223011 2.0123590909090905 Q 2.649394642223011 2.017813636363636 2.645303733132102 2.0219045454545452 Q 2.641212824041193 2.025995454545454 2.6357582785866476 2.025995454545454 L 2.60098555131392 2.025995454545454 Q 2.592803733132102 2.025995454545454 2.589053733132102 2.0219045454545452 Q 2.585303733132102 2.017813636363636 2.5839400967684654 2.014404545454545 L 2.5464400967684657 1.9175863636363633 L 2.322803733132102 1.9175863636363633 L 2.285303733132102 2.014404545454545 Q 2.284621914950284 2.017813636363636 2.2805310058593746 2.0219045454545452 Q 2.2764400967684657 2.025995454545454 2.2682582785866474 2.025995454545454 L 2.2334855513139202 2.025995454545454 Z M 2.342576460404829 1.8589499999999997 L 2.5266673694957382 1.8589499999999997 L 2.434621914950284 1.616904545454545 L 2.342576460404829 1.8589499999999997 Z M 2.738019353693182 2.025995454545454 Q 2.7305193536931816 2.025995454545454 2.7264284446022726 2.021563636363636 Q 2.7223375355113633 2.017131818181818 2.7223375355113633 2.010313636363636 L 2.7223375355113633 1.5650863636363632 Q 2.7223375355113633 1.5575863636363634 2.7264284446022726 1.5531545454545452 Q 2.7305193536931816 1.5487227272727269 2.738019353693182 1.5487227272727269 L 2.904382990056818 1.5487227272727269 Q 2.9814284446022725 1.5487227272727269 3.0264284446022724 1.5848590909090905 Q 3.0714284446022724 1.6209954545454541 3.0714284446022724 1.6919045454545452 Q 3.0714284446022724 1.7444045454545452 3.0451784446022727 1.7774727272727269 Q 3.0189284446022726 1.8105409090909088 2.9739284446022727 1.8234954545454543 L 3.0789284446022727 2.0048590909090906 Q 3.080973899147727 2.0089499999999996 3.080973899147727 2.0123590909090905 Q 3.080973899147727 2.017813636363636 3.076542080965909 2.0219045454545452 Q 3.072110262784091 2.025995454545454 3.0666557173295454 2.025995454545454 L 3.0339284446022727 2.025995454545454 Q 3.0223375355113635 2.025995454545454 3.016882990056818 2.0198590909090903 Q 3.0114284446022728 2.013722727272727 3.0073375355113634 2.007586363636363 L 2.9084738991477272 1.834404545454545 L 2.789155717329545 1.834404545454545 L 2.789155717329545 2.010313636363636 Q 2.789155717329545 2.017131818181818 2.784723899147727 2.021563636363636 Q 2.780292080965909 2.025995454545454 2.772792080965909 2.025995454545454 L 2.738019353693182 2.025995454545454 Z M 2.789155717329545 1.7764499999999996 L 2.9016557173295454 1.7764499999999996 Q 2.9527920809659087 1.7764499999999996 2.9780193536931816 1.754972727272727 Q 3.0032466264204545 1.7334954545454542 3.0032466264204545 1.691222727272727 Q 3.0032466264204545 1.6496318181818177 2.978360262784091 1.627813636363636 Q 2.953473899147727 1.6059954545454542 2.9016557173295454 1.6059954545454542 L 2.789155717329545 1.6059954545454542 L 2.789155717329545 1.7764499999999996 Z M 3.184588623046875 2.025995454545454 Q 3.177088623046875 2.025995454545454 3.172997713955966 2.021563636363636 Q 3.1689068048650566 2.017131818181818 3.1689068048650566 2.010313636363636 L 3.1689068048650566 1.5650863636363632 Q 3.1689068048650566 1.5575863636363634 3.172997713955966 1.5531545454545452 Q 3.177088623046875 1.5487227272727269 3.184588623046875 1.5487227272727269 L 3.466179532137784 1.5487227272727269 Q 3.4736795321377842 1.5487227272727269 3.477770441228693 1.5531545454545452 Q 3.481861350319602 1.5575863636363634 3.481861350319602 1.5650863636363632 L 3.481861350319602 1.590995454545454 Q 3.481861350319602 1.5984954545454542 3.477770441228693 1.6025863636363633 Q 3.4736795321377842 1.6066772727272722 3.466179532137784 1.6066772727272722 L 3.2343613503196025 1.6066772727272722 L 3.2343613503196025 1.7559954545454541 L 3.4511795321377843 1.7559954545454541 Q 3.458679532137784 1.7559954545454541 3.462770441228693 1.7604272727272723 Q 3.4668613503196024 1.7648590909090904 3.4668613503196024 1.7723590909090905 L 3.4668613503196024 1.7975863636363631 Q 3.4668613503196024 1.804404545454545 3.462770441228693 1.8088363636363634 Q 3.458679532137784 1.8132681818181815 3.4511795321377843 1.8132681818181815 L 3.2343613503196025 1.8132681818181815 L 3.2343613503196025 1.9680409090909088 L 3.4716340775923293 1.9680409090909088 Q 3.4791340775923296 1.9680409090909088 3.4832249866832385 1.9721318181818177 Q 3.487315895774148 1.9762227272727269 3.487315895774148 1.983722727272727 L 3.487315895774148 2.010313636363636 Q 3.487315895774148 2.017131818181818 3.4832249866832385 2.021563636363636 Q 3.4791340775923296 2.025995454545454 3.4716340775923293 2.025995454545454 L 3.184588623046875 2.025995454545454 Z M 3.9209196333451706 2.032813636363636 Q 3.858192360617898 2.032813636363636 3.816942360617898 2.0096318181818176 Q 3.775692360617898 1.9864499999999996 3.7545559969815345 1.9448590909090906 Q 3.7334196333451706 1.9032681818181814 3.731374178799716 1.8480409090909087 Q 3.730692360617898 1.8200863636363633 3.730692360617898 1.7880409090909086 Q 3.730692360617898 1.7559954545454541 3.731374178799716 1.7266772727272723 Q 3.7334196333451706 1.6714499999999997 3.7545559969815345 1.6298590909090906 Q 3.775692360617898 1.5882681818181814 3.816942360617898 1.5650863636363632 Q 3.858192360617898 1.541904545454545 3.9209196333451706 1.541904545454545 Q 3.9679650878906254 1.541904545454545 4.003419633345171 1.5548590909090905 Q 4.038874178799716 1.5678136363636361 4.062396906072443 1.5896318181818179 Q 4.085919633345171 1.6114499999999996 4.098192360617898 1.6383818181818177 Q 4.110465087890625 1.665313636363636 4.111828724254262 1.6939499999999996 Q 4.1125105424360795 1.7000863636363632 4.108078724254262 1.7041772727272724 Q 4.103646906072443 1.7082681818181815 4.09751054243608 1.7082681818181815 L 4.06001054243608 1.7082681818181815 Q 4.053874178799716 1.7082681818181815 4.049442360617898 1.7048590909090906 Q 4.04501054243608 1.7014499999999997 4.042965087890625 1.6925863636363632 Q 4.031374178799716 1.6394045454545452 3.999669633345171 1.619631818181818 Q 3.9679650878906254 1.5998590909090906 3.9209196333451706 1.5998590909090906 Q 3.865692360617898 1.5998590909090906 3.8336469060724436 1.6308818181818179 Q 3.801601451526989 1.6619045454545451 3.7995559969815345 1.7300863636363633 Q 3.79751054243608 1.7859954545454542 3.7995559969815345 1.8446318181818178 Q 3.801601451526989 1.9128136363636359 3.8336469060724436 1.9438363636363634 Q 3.865692360617898 1.9748590909090906 3.9209196333451706 1.9748590909090906 Q 3.9679650878906254 1.9748590909090906 3.999669633345171 1.9550863636363633 Q 4.031374178799716 1.935313636363636 4.042965087890625 1.8821318181818179 Q 4.04501054243608 1.8732681818181813 4.049442360617898 1.8698590909090904 Q 4.053874178799716 1.8664499999999995 4.06001054243608 1.8664499999999995 L 4.09751054243608 1.8664499999999995 Q 4.103646906072443 1.8664499999999995 4.108078724254262 1.8701999999999996 Q 4.1125105424360795 1.8739499999999996 4.111828724254262 1.8800863636363632 Q 4.110465087890625 1.908722727272727 4.098192360617898 1.935995454545454 Q 4.085919633345171 1.9632681818181814 4.062396906072443 1.9850863636363631 Q 4.038874178799716 2.006904545454545 4.003419633345171 2.0198590909090903 Q 3.9679650878906254 2.032813636363636 3.9209196333451706 2.032813636363636 Z M 4.218843217329546 2.025995454545454 Q 4.211343217329546 2.025995454545454 4.207252308238637 2.021563636363636 Q 4.203161399147728 2.017131818181818 4.203161399147728 2.010313636363636 L 4.203161399147728 1.5650863636363632 Q 4.203161399147728 1.5575863636363634 4.207252308238637 1.5531545454545452 Q 4.211343217329546 1.5487227272727269 4.218843217329546 1.5487227272727269 L 4.385206853693182 1.5487227272727269 Q 4.462252308238637 1.5487227272727269 4.507252308238637 1.5848590909090905 Q 4.552252308238637 1.6209954545454541 4.552252308238637 1.6919045454545452 Q 4.552252308238637 1.7444045454545452 4.5260023082386365 1.7774727272727269 Q 4.499752308238636 1.8105409090909088 4.454752308238636 1.8234954545454543 L 4.559752308238637 2.0048590909090906 Q 4.561797762784091 2.0089499999999996 4.561797762784091 2.0123590909090905 Q 4.561797762784091 2.017813636363636 4.557365944602273 2.0219045454545452 Q 4.552934126420455 2.025995454545454 4.547479580965909 2.025995454545454 L 4.514752308238637 2.025995454545454 Q 4.503161399147728 2.025995454545454 4.497706853693182 2.0198590909090903 Q 4.492252308238637 2.013722727272727 4.488161399147728 2.007586363636363 L 4.389297762784091 1.834404545454545 L 4.269979580965909 1.834404545454545 L 4.269979580965909 2.010313636363636 Q 4.269979580965909 2.017131818181818 4.265547762784092 2.021563636363636 Q 4.261115944602273 2.025995454545454 4.253615944602273 2.025995454545454 L 4.218843217329546 2.025995454545454 Z M 4.269979580965909 1.7764499999999996 L 4.382479580965909 1.7764499999999996 Q 4.433615944602273 1.7764499999999996 4.458843217329546 1.754972727272727 Q 4.484070490056818 1.7334954545454542 4.484070490056818 1.691222727272727 Q 4.484070490056818 1.6496318181818177 4.459184126420455 1.627813636363636 Q 4.434297762784091 1.6059954545454542 4.382479580965909 1.6059954545454542 L 4.269979580965909 1.6059954545454542 L 4.269979580965909 1.7764499999999996 Z M 4.665412486683239 2.025995454545454 Q 4.657912486683239 2.025995454545454 4.65382157759233 2.021563636363636 Q 4.649730668501421 2.017131818181818 4.649730668501421 2.010313636363636 L 4.649730668501421 1.5650863636363632 Q 4.649730668501421 1.5575863636363634 4.65382157759233 1.5531545454545452 Q 4.657912486683239 1.5487227272727269 4.665412486683239 1.5487227272727269 L 4.947003395774148 1.5487227272727269 Q 4.9545033957741484 1.5487227272727269 4.958594304865057 1.5531545454545452 Q 4.962685213955966 1.5575863636363634 4.962685213955966 1.5650863636363632 L 4.962685213955966 1.590995454545454 Q 4.962685213955966 1.5984954545454542 4.958594304865057 1.6025863636363633 Q 4.9545033957741484 1.6066772727272722 4.947003395774148 1.6066772727272722 L 4.715185213955967 1.6066772727272722 L 4.715185213955967 1.7559954545454541 L 4.9320033957741485 1.7559954545454541 Q 4.939503395774148 1.7559954545454541 4.943594304865058 1.7604272727272723 Q 4.947685213955967 1.7648590909090904 4.947685213955967 1.7723590909090905 L 4.947685213955967 1.7975863636363631 Q 4.947685213955967 1.804404545454545 4.943594304865058 1.8088363636363634 Q 4.939503395774148 1.8132681818181815 4.9320033957741485 1.8132681818181815 L 4.715185213955967 1.8132681818181815 L 4.715185213955967 1.9680409090909088 L 4.952457941228694 1.9680409090909088 Q 4.959957941228693 1.9680409090909088 4.964048850319603 1.9721318181818177 Q 4.968139759410512 1.9762227272727269 4.968139759410512 1.983722727272727 L 4.968139759410512 2.010313636363636 Q 4.968139759410512 2.017131818181818 4.964048850319603 2.021563636363636 Q 4.959957941228693 2.025995454545454 4.952457941228694 2.025995454545454 L 4.665412486683239 2.025995454545454 Z M 5.030837735262785 2.025995454545454 Q 5.025383189808239 2.025995454545454 5.02129228071733 2.0219045454545452 Q 5.017201371626421 2.017813636363636 5.017201371626421 2.0123590909090905 Q 5.017201371626421 2.0089499999999996 5.01788318980824 2.0048590909090906 L 5.186974098899149 1.563722727272727 Q 5.1897013716264215 1.5569045454545452 5.194474098899148 1.552813636363636 Q 5.199246826171875 1.5487227272727269 5.20879228071733 1.5487227272727269 L 5.255155917080967 1.5487227272727269 Q 5.264701371626421 1.5487227272727269 5.269474098899148 1.552813636363636 Q 5.274246826171876 1.5569045454545452 5.2769740988991485 1.563722727272727 L 5.445383189808239 2.0048590909090906 Q 5.446746826171876 2.0089499999999996 5.446746826171876 2.0123590909090905 Q 5.446746826171876 2.017813636363636 5.442655917080967 2.0219045454545452 Q 5.438565007990057 2.025995454545454 5.433110462535512 2.025995454545454 L 5.398337735262785 2.025995454545454 Q 5.390155917080967 2.025995454545454 5.386405917080967 2.0219045454545452 Q 5.3826559170809665 2.017813636363636 5.3812922807173305 2.014404545454545 L 5.34379228071733 1.9175863636363633 L 5.120155917080966 1.9175863636363633 L 5.082655917080967 2.014404545454545 Q 5.081974098899148 2.017813636363636 5.077883189808239 2.0219045454545452 Q 5.07379228071733 2.025995454545454 5.0656104625355125 2.025995454545454 L 5.030837735262785 2.025995454545454 Z M 5.139928644353694 1.8589499999999997 L 5.324019553444603 1.8589499999999997 L 5.2319740988991486 1.616904545454545 L 5.139928644353694 1.8589499999999997 Z M 5.589210870916194 2.025995454545454 Q 5.582392689098012 2.025995454545454 5.577960870916193 2.021563636363636 Q 5.573529052734376 2.017131818181818 5.573529052734376 2.010313636363636 L 5.573529052734376 1.6094045454545451 L 5.442619961825285 1.6094045454545451 Q 5.435801780007103 1.6094045454545451 5.431369961825284 1.604972727272727 Q 5.426938143643466 1.6005409090909088 5.426938143643466 1.593722727272727 L 5.426938143643466 1.5650863636363632 Q 5.426938143643466 1.5575863636363634 5.431369961825284 1.5531545454545452 Q 5.435801780007103 1.5487227272727269 5.442619961825285 1.5487227272727269 L 5.771256325461648 1.5487227272727269 Q 5.778756325461648 1.5487227272727269 5.783188143643466 1.5531545454545452 Q 5.787619961825285 1.5575863636363634 5.787619961825285 1.5650863636363632 L 5.787619961825285 1.593722727272727 Q 5.787619961825285 1.6005409090909088 5.783188143643466 1.604972727272727 Q 5.778756325461648 1.6094045454545451 5.771256325461648 1.6094045454545451 L 5.641029052734376 1.6094045454545451 L 5.641029052734376 2.010313636363636 Q 5.641029052734376 2.017131818181818 5.636597234552557 2.021563636363636 Q 5.632165416370739 2.025995454545454 5.624665416370739 2.025995454545454 L 5.589210870916194 2.025995454545454 Z M 6.025550537109376 2.032813636363636 Q 5.966914173473012 2.032813636363636 5.9253232643821026 2.0126999999999997 Q 5.883732355291193 1.9925863636363632 5.861232355291193 1.950654545454545 Q 5.838732355291193 1.908722727272727 5.836005082563921 1.845313636363636 Q 5.835323264382103 1.815313636363636 5.835323264382103 1.7876999999999996 Q 5.835323264382103 1.7600863636363633 5.836005082563921 1.7300863636363633 Q 5.838732355291193 1.6673590909090905 5.86225508256392 1.6254272727272725 Q 5.8857778098366484 1.5834954545454543 5.927709628018466 1.5626999999999995 Q 5.969641446200284 1.541904545454545 6.025550537109376 1.541904545454545 Q 6.080777809836648 1.541904545454545 6.122709628018466 1.5626999999999995 Q 6.164641446200284 1.5834954545454543 6.188505082563921 1.6254272727272725 Q 6.212368718927557 1.6673590909090905 6.214414173473012 1.7300863636363633 Q 6.215777809836648 1.7600863636363633 6.215777809836648 1.7876999999999996 Q 6.215777809836648 1.815313636363636 6.214414173473012 1.845313636363636 Q 6.212368718927557 1.908722727272727 6.189527809836648 1.950654545454545 Q 6.166686900745739 1.9925863636363632 6.12509599165483 2.0126999999999997 Q 6.083505082563921 2.032813636363636 6.025550537109376 2.032813636363636 Z M 6.025550537109376 1.9748590909090906 Q 6.077368718927557 1.9748590909090906 6.110436900745739 1.9434954545454541 Q 6.14350508256392 1.9121318181818179 6.146232355291193 1.841904545454545 Q 6.14759599165483 1.8112227272727268 6.14759599165483 1.7870181818181814 Q 6.14759599165483 1.762813636363636 6.146232355291193 1.732813636363636 Q 6.144868718927557 1.6857681818181813 6.1288459916548295 1.6564499999999995 Q 6.1128232643821026 1.6271318181818177 6.086232355291194 1.613495454545454 Q 6.059641446200285 1.5998590909090906 6.025550537109376 1.5998590909090906 Q 5.991459628018466 1.5998590909090906 5.9648687189275575 1.613495454545454 Q 5.938277809836648 1.6271318181818177 5.922255082563921 1.6564499999999995 Q 5.906232355291193 1.6857681818181813 5.904186900745739 1.732813636363636 Q 5.903505082563921 1.762813636363636 5.903505082563921 1.7870181818181814 Q 5.903505082563921 1.8112227272727268 5.904186900745739 1.841904545454545 Q 5.9069141734730115 1.9121318181818179 5.940323264382102 1.9434954545454541 Q 5.973732355291194 1.9748590909090906 6.025550537109376 1.9748590909090906 Z M 6.330964799360796 2.025995454545454 Q 6.323464799360796 2.025995454545454 6.319373890269887 2.021563636363636 Q 6.315282981178978 2.017131818181818 6.315282981178978 2.010313636363636 L 6.315282981178978 1.5650863636363632 Q 6.315282981178978 1.5575863636363634 6.319373890269887 1.5531545454545452 Q 6.323464799360796 1.5487227272727269 6.330964799360796 1.5487227272727269 L 6.497328435724432 1.5487227272727269 Q 6.574373890269887 1.5487227272727269 6.619373890269887 1.5848590909090905 Q 6.664373890269887 1.6209954545454541 6.664373890269887 1.6919045454545452 Q 6.664373890269887 1.7444045454545452 6.6381238902698865 1.7774727272727269 Q 6.611873890269886 1.8105409090909088 6.566873890269886 1.8234954545454543 L 6.671873890269887 2.0048590909090906 Q 6.673919344815341 2.0089499999999996 6.673919344815341 2.0123590909090905 Q 6.673919344815341 2.017813636363636 6.669487526633523 2.0219045454545452 Q 6.665055708451705 2.025995454545454 6.659601162997159 2.025995454545454 L 6.626873890269887 2.025995454545454 Q 6.615282981178978 2.025995454545454 6.609828435724432 2.0198590909090903 Q 6.604373890269887 2.013722727272727 6.600282981178978 2.007586363636363 L 6.501419344815341 1.834404545454545 L 6.382101162997159 1.834404545454545 L 6.382101162997159 2.010313636363636 Q 6.382101162997159 2.017131818181818 6.377669344815342 2.021563636363636 Q 6.373237526633523 2.025995454545454 6.365737526633523 2.025995454545454 L 6.330964799360796 2.025995454545454 Z M 6.382101162997159 1.7764499999999996 L 6.494601162997159 1.7764499999999996 Q 6.545737526633523 1.7764499999999996 6.570964799360796 1.754972727272727 Q 6.596192072088068 1.7334954545454542 6.596192072088068 1.691222727272727 Q 6.596192072088068 1.6496318181818177 6.571305708451705 1.627813636363636 Q 6.546419344815341 1.6059954545454542 6.494601162997159 1.6059954545454542 L 6.382101162997159 1.6059954545454542 L 6.382101162997159 1.7764499999999996 Z M 6.915261341441762 2.032813636363636 Q 6.85594315962358 2.032813636363636 6.8157158868963075 2.014404545454545 Q 6.775488614169035 1.9959954545454541 6.754011341441762 1.9670181818181813 Q 6.7325340687144895 1.9380409090909088 6.7311704323508526 1.905995454545454 Q 6.7311704323508526 1.9005409090909087 6.735602250532671 1.8961090909090905 Q 6.740034068714489 1.8916772727272724 6.746170432350853 1.8916772727272724 L 6.78094315962358 1.8916772727272724 Q 6.789124977805399 1.8916772727272724 6.7932158868963075 1.8957681818181815 Q 6.797306795987216 1.8998590909090904 6.798670432350852 1.905313636363636 Q 6.802761341441762 1.9216772727272724 6.8157158868963075 1.9376999999999995 Q 6.828670432350853 1.9537227272727269 6.852874977805398 1.9642909090909086 Q 6.877079523259944 1.9748590909090906 6.915261341441762 1.9748590909090906 Q 6.973897705078126 1.9748590909090906 7.001511341441762 1.954063636363636 Q 7.029124977805398 1.9332681818181814 7.029124977805398 1.8984954545454542 Q 7.029124977805398 1.8746318181818178 7.014465886896307 1.8599727272727269 Q 6.999806795987216 1.845313636363636 6.969806795987217 1.8337227272727268 Q 6.9398067959872165 1.8221318181818178 6.892079523259944 1.8084954545454541 Q 6.842306795987216 1.7941772727272722 6.809579523259944 1.7771318181818179 Q 6.776852250532671 1.7600863636363633 6.760829523259944 1.7348590909090906 Q 6.744806795987216 1.7096318181818178 6.744806795987216 1.6707681818181814 Q 6.744806795987216 1.6339499999999996 6.764579523259944 1.604972727272727 Q 6.784352250532671 1.5759954545454542 6.821852250532671 1.5589499999999996 Q 6.859352250532671 1.541904545454545 6.911852250532671 1.541904545454545 Q 6.954124977805399 1.541904545454545 6.985829523259944 1.5531545454545452 Q 7.01753406871449 1.5644045454545452 7.038670432350853 1.583154545454545 Q 7.059806795987217 1.601904545454545 7.070715886896307 1.6233818181818178 Q 7.081624977805398 1.6448590909090905 7.082306795987217 1.665313636363636 Q 7.082306795987217 1.6700863636363632 7.078897705078125 1.6745181818181814 Q 7.075488614169035 1.6789499999999997 7.0679886141690345 1.6789499999999997 L 7.031852250532671 1.6789499999999997 Q 7.0270795232599434 1.6789499999999997 7.021965886896307 1.676222727272727 Q 7.016852250532671 1.6734954545454541 7.014124977805398 1.6659954545454543 Q 7.010034068714489 1.6380409090909087 6.982761341441762 1.6189499999999997 Q 6.955488614169035 1.5998590909090906 6.911852250532671 1.5998590909090906 Q 6.867534068714489 1.5998590909090906 6.839920432350853 1.616904545454545 Q 6.812306795987216 1.6339499999999996 6.812306795987216 1.6700863636363632 Q 6.812306795987216 1.6932681818181814 6.825261341441762 1.7086090909090905 Q 6.838215886896307 1.7239499999999996 6.866170432350853 1.7355409090909086 Q 6.894124977805398 1.7471318181818178 6.939124977805398 1.7600863636363633 Q 6.993670432350853 1.7750863636363632 7.02844315962358 1.7917909090909088 Q 7.063215886896307 1.8084954545454541 7.079920432350852 1.8333818181818178 Q 7.096624977805398 1.8582681818181814 7.096624977805398 1.8971318181818178 Q 7.096624977805398 1.9400863636363632 7.074124977805399 1.9704272727272722 Q 7.051624977805398 2.0007681818181813 7.0110567959872165 2.0167909090909086 Q 6.970488614169034 2.032813636363636 6.915261341441762 2.032813636363636 Z" fill="#e8a941" fill-rule="nonzero"></path></g><g clip-path="url(&quot;#SvgjsClipPath1009&quot;)"><g clip-path="url(&quot;#SvgjsClipPath1008&quot;)"><path d=" M -2.15591371751685 0.957215937904097 C -2.1538761066128407 0.8705767175464924 -2.146206772195454 0.7841616818576224 -2.132954256385415 0.6985177843104425 C -2.12124942109567 0.6246999697393312 -2.1045026468207 0.5517704688644699 -2.0828314891266424 0.48024121721582147 C -2.1475060275250573 0.4880021618236313 -2.2094857934902024 0.49694880630207283 -2.268770787022071 0.5070811506511583 C -2.3386192884923536 0.5187225675628762 -2.405557435734711 0.5323042206265418 -2.469261856057143 0.5468559917661845 C -2.500665045384356 0.6129586746292807 -2.525260262553096 0.6820853202400899 -2.542667457139345 0.7531677692571118 C -2.55901394927029 0.8197614660152047 -2.568975760221299 0.8877616538111808 -2.572417744802625 0.9562458198281263 Z" fill="#bdbfc3" transform="matrix(1,0,0,1,0,0)" fill-rule="evenodd"></path></g><g clip-path="url(&quot;#SvgjsClipPath1008&quot;)"><path d=" M -2.0828314891266424 1.5451074919456462 C -2.1045023300474592 1.4734685309526867 -2.1212489825540155 1.4004315174402313 -2.132954256385415 1.3265075521590122 C -2.1463970211550536 1.2408868983182844 -2.154067475493575 1.1544592437998509 -2.15591371751685 1.06780939856537 L -2.5724177448026126 1.06780939856537 C -2.568999316772362 1.136295874680797 -2.5590371785793353 1.2042982962593298 -2.542667457139345 1.2708874491363844 C -2.525209113918649 1.3419545690688122 -2.5006157092769463 1.4110761204406628 -2.4692618560571367 1.477199226627318 C -2.4045873176587276 1.491643206869627 -2.33775696131371 1.5049014872413045 -2.268770787022071 1.516974067742344 C -2.2086234663115465 1.527968739270067 -2.1466437003464014 1.5373465473378363 -2.0828314891266424 1.5451074919456462 Z" fill="#262626" transform="matrix(1,0,0,1,0,0)" fill-rule="evenodd"></path></g><g clip-path="url(&quot;#SvgjsClipPath1008&quot;)"><path d=" M -1.7617224059785332 2.0654141533608614 C -1.7896755941144442 2.0416256607955416 -1.8160334904362982 2.016023933630464 -1.840625342824609 1.9887748253587465 C -1.8964496487642566 1.9263288384207757 -1.9445475558122238 1.857384885880232 -1.9838794453770872 1.7834331659437899 C -1.9951974895968043 1.7624139409643087 -2.0061921611245275 1.7404245979088508 -2.0162167145762853 1.7187586275453808 C -2.0262412680280373 1.697092657181911 -2.032385349175888 1.6822175133502801 -2.039822921091709 1.6637852699067295 C -2.1103181679459677 1.656024325298926 -2.1795199240322676 1.6466465172311564 -2.246781443966613 1.6359752183954157 C -2.2978743293013566 1.6278909010956115 -2.3473503511761464 1.6191598384118246 -2.3952095095909707 1.609458657652073 C -2.380010993067345 1.6324181187835083 -2.3644891038517257 1.6547308345309606 -2.3479970965601353 1.6760734322024362 C -2.3188998251375508 1.7136855166774771 -2.2874709104572903 1.7494345570869763 -2.2538956431904467 1.7831097932518079 C -2.1718151578380933 1.865400643213754 -2.0770446073572923 1.933967354851941 -1.9732081465413587 1.9861878438228162 C -1.9056572381033745 2.0198732720533012 -1.8347789942194321 2.0464255193798526 -1.761722405978527 2.0654141533608676 Z" fill="#e8a941" transform="matrix(1,0,0,1,0,0)" fill-rule="evenodd"></path></g><g clip-path="url(&quot;#SvgjsClipPath1008&quot;)"><path d=" M -1.9137075712147982 1.6744565687424704 L -1.9098270989108963 1.6831876314262573 C -1.9023895269950808 1.6983861479498825 -1.894628582387271 1.7155249006254616 -1.885897519703478 1.7300766717651044 C -1.8420174063850956 1.814021213808998 -1.785035507747436 1.890433721560658 -1.7170969744836284 1.9564375561595422 C -1.66580047467205 2.005571459606913 -1.6068152221811338 2.045987280758099 -1.5424757208079167 2.0760854521966023 L -1.5424757208079167 1.6925654394940266 C -1.6093060771529468 1.6925654394940266 -1.6749507336273388 1.6907329942394 -1.7394096902310872 1.687068103730159 C -1.79826352017364 1.6835110041182453 -1.8564706047322108 1.6796305318143436 -1.9137075712147982 1.6744565687424704 Z" fill="#262626" transform="matrix(1,0,0,1,0,0)" fill-rule="evenodd"></path></g><g clip-path="url(&quot;#SvgjsClipPath1008&quot;)"><path d=" M -2.044026766087593 1.0691028893333476 C -2.0419809035606025 1.154173315175482 -2.033984849248179 1.2389963237600723 -2.020097186880181 1.3229504525471232 C -2.00699941190367 1.4029410811034082 -1.987204053243796 1.4816898303076838 -1.9609199842456335 1.5583657723173236 C -1.8919338099539948 1.5648332261571682 -1.8215463539970695 1.569899398331708 -1.7497576163748274 1.573564288840949 C -1.6812026056725102 1.5770135975555288 -1.612108640483544 1.5791694155021438 -1.542475720807923 1.5800317426807873 L -1.542475720807923 1.0691028893333414 Z" fill="#bdbfc3" transform="matrix(1,0,0,1,0,0)" fill-rule="evenodd"></path></g><g clip-path="url(&quot;#SvgjsClipPath1008&quot;)"><path d=" M -1.960919984245646 0.46795305492011485 C -1.9871661883048084 0.5445299456641547 -2.006960932551142 0.623168082642739 -2.020097186880187 0.7030450019983393 C -2.033969536987839 0.7871097492653913 -2.041965440531237 0.8720392112263606 -2.0440267660876055 0.957215937904097 L -1.5424757208079352 0.957215937904097 L -1.5424757208079352 0.44628708455665117 C -1.612000849586229 0.44628708455665117 -1.6812026056725289 0.4491974387845822 -1.7494342436828452 0.45243116570450137 C -1.8176658816931617 0.4556648926244268 -1.8910714827753574 0.4614856010802765 -1.960919984245646 0.46795305492011485 Z" fill="#262626" transform="matrix(1,0,0,1,0,0)" fill-rule="evenodd"></path></g><g clip-path="url(&quot;#SvgjsClipPath1008&quot;)"><path d=" M -1.9137075712147982 0.3512155131109917 C -1.8564706047322108 0.3466882954231011 -1.79826352017364 0.3428078231191993 -1.7394096902310872 0.33989746889126826 C -1.6747351518326719 0.33687932376600993 -1.6090904953582859 0.3349390876140559 -1.542475720807923 0.33407676043541246 L -1.542475720807923 -0.049443252267163285 C -1.6068263164472816 -0.019226614786733487 -1.6658098055978543 0.02129722683338245 -1.7170969744836284 0.0705280164618791 C -1.785035507747436 0.13653185106077548 -1.8420174063850956 0.21294435881242924 -1.885897519703478 0.29688890085632913 C -1.8939818370032824 0.31176404468796 -1.9017427816110921 0.3272859339035734 -1.9095037262189019 0.34345456850318185 Z" fill="#e8a941" transform="matrix(1,0,0,1,0,0)" fill-rule="evenodd"></path></g><g clip-path="url(&quot;#SvgjsClipPath1008&quot;)"><path d=" M -1.0587101735878082 0.3512155131109917 L -1.0625906458917163 0.3428078231191993 C -1.070351590499526 0.326639188519597 -1.0784359077993302 0.31047055391999473 -1.0865202250991346 0.2959187827803521 C -1.1303154576840675 0.2119209130553501 -1.1873069111637884 0.1354955922970985 -1.255320770318978 0.06955789838592062 C -1.3066079392047583 0.02032710875741163 -1.365591428355331 -0.02019673286270431 -1.4299420239946836 -0.050413370343140286 L -1.4299420239946836 0.3331066423594416 C -1.3631116676496597 0.3331066423594416 -1.2974670111752737 0.3350468785113956 -1.2330080545715256 0.3389273508152974 C -1.1741542246289725 0.34280782311919306 -1.114977021994431 0.3466882954231011 -1.0587101735878082 0.3512155131109917 Z" fill="#bdbfc3" transform="matrix(1,0,0,1,0,0)" fill-rule="evenodd"></path></g><g clip-path="url(&quot;#SvgjsClipPath1008&quot;)"><path d=" M -0.9283909787150133 0.957215937904097 C -0.9303944912930304 0.8720217893839294 -0.9384995597765229 0.7870806716769273 -0.9526439306144134 0.7030450019983516 C -0.9655233125940237 0.6231463690548935 -0.98521301675795 0.5444957375869007 -1.0114977605569666 0.46795305492012107 C -1.080376143951272 0.4614856010802765 -1.150871390805543 0.4559882653164088 -1.222660128427773 0.45243116570450137 C -1.294448866050003 0.4488740660925878 -1.3604168952163833 0.4469338299406338 -1.4299420239946774 0.446287084556645 L -1.4299420239946774 0.957215937904091 Z" fill="#e8a941" transform="matrix(1,0,0,1,0,0)" fill-rule="evenodd"></path></g><g clip-path="url(&quot;#SvgjsClipPath1008&quot;)"><path d=" M -1.0114977605569728 1.5583657723173236 C -0.98521301675795 1.4818230896505378 -0.9655233125940237 1.4031724581825449 -0.9526439306144134 1.323273825239093 C -0.9384995597765291 1.2392381555605112 -0.9303944912930366 1.1542970378535153 -0.9283909787150255 1.0691028893333414 L -1.4299420239946958 1.0691028893333414 L -1.4299420239946958 1.5800317426807873 C -1.360416895216402 1.5800317426807873 -1.2912151391301023 1.5771213884528563 -1.2229835011197858 1.573564288840949 C -1.1547518631094695 1.5700071892290353 -1.080376143951278 1.5648332261571682 -1.0114977605569728 1.5583657723173236 Z" fill="#262626" transform="matrix(1,0,0,1,0,0)" fill-rule="evenodd"></path></g><g clip-path="url(&quot;#SvgjsClipPath1008&quot;)"><path d=" M -1.4299420239946836 2.0754387068126134 C -1.3656025226214787 2.0453405353741108 -1.3066172701305625 2.0049247142229243 -1.255320770318978 1.9557908107755533 C -1.1873822370551765 1.8897869761766692 -1.1304003384175108 1.8133744684250155 -1.0865202250991346 1.7294299263811155 C -1.078112535107336 1.7139080371654958 -1.0700282178075378 1.697092657181911 -1.0625906458917163 1.6825408860422684 L -1.0587101735878082 1.6738098233584815 C -1.1159471400704017 1.6786604137383665 -1.1741542246289725 1.6825408860422684 -1.2330080545715256 1.6854512402701993 C -1.2976825929699407 1.6882538036007968 -1.3633272494443267 1.6900862488554174 -1.4299420239946836 1.6909485760340608 Z" fill="#e8a941" transform="matrix(1,0,0,1,0,0)" fill-rule="evenodd"></path></g><g clip-path="url(&quot;#SvgjsClipPath1008&quot;)"><path d=" M -0.931301332942938 1.6628151518307588 C -0.9387389048587536 1.6812473952743032 -0.9468232221585577 1.6996796387178539 -0.9549075394583619 1.7174651367774094 C -0.9656866291914301 1.7403168070115171 -0.9764657189244983 1.7618749864776535 -0.9872448086575665 1.7821396751758247 C -1.0265308238242101 1.8561194461169785 -1.0746324405139533 1.9250687160898659 -1.1304989112100505 1.9874813345907811 C -1.1552549679141797 2.0145716573473207 -1.1816025998675757 2.0401634146135397 -1.209401848056108 2.064120662592896 C -1.136086429846309 2.044863697370277 -1.0649881866161282 2.0179850932222796 -0.9972693621093185 1.9839242349788613 C -0.8934822968905387 1.9316225165080552 -0.7987240528180117 1.8630647085846153 -0.7165818654602183 1.7808461844078534 C -0.6829335431987691 1.7473332845361802 -0.65160197638674 1.7115720824162424 -0.6228037847825301 1.6738098233584815 C -0.6059884047989452 1.652467225687006 -0.5904665155833257 1.6301545099395536 -0.5752679990597005 1.6071950488081186 C -0.6231271574745245 1.6168962295678824 -0.6722798066573201 1.6256272922516692 -0.724019437376046 1.6337116095514672 C -0.7916043300023798 1.6456763991551795 -0.8608060860886733 1.6550542072229488 -0.931301332942938 1.6628151518307588 Z" fill="#bdbfc3" transform="matrix(1,0,0,1,0,0)" fill-rule="evenodd"></path></g><g clip-path="url(&quot;#SvgjsClipPath1008&quot;)"><path d=" M -0.8165040272857627 1.0691028893333476 C -0.818364855525791 1.15575193220352 -0.8260352231881691 1.24217861008958 -0.8394634884171979 1.3278010429269773 C -0.8510144286127983 1.4017548002953064 -0.867763518747189 1.4748024450104533 -0.8895862556759704 1.5464009827136176 C -0.8249117172775551 1.5386400381058079 -0.7629319513124102 1.52969339362736 -0.7036469577805413 1.5195610492782807 C -0.6341218290022475 1.5075962596745685 -0.5668603090679016 1.4943379793028972 -0.5028325160534752 1.4797862081632547 C -0.47153403688914874 1.4136737125163368 -0.4470470658294894 1.344546776516053 -0.4297502876632677 1.273474430672315 C -0.41335716807172673 1.2068898589069983 -0.4033946990523911 1.1388851790793741 -0.3999999999999937 1.0703963801013066 Z" fill="#e8a941" transform="matrix(1,0,0,1,0,0)" fill-rule="evenodd"></path></g><g clip-path="url(&quot;#SvgjsClipPath1008&quot;)"><path d=" M -0.8886161375999995 0.4812113352917985 C -0.8667934006712184 0.5528098729949564 -0.8500443105368214 0.6258575177101097 -0.838493370341227 0.6998112750784263 C -0.8250651051121982 0.78543370791583 -0.8173947374498203 0.8718603858018898 -0.815533909209792 0.9585094286720683 L -0.3990298819240228 0.9585094286720683 C -0.40247186650534283 0.8900252626551229 -0.4124336774563515 0.8220250748591469 -0.4287801695872906 0.7554313781010602 C -0.4461873641735399 0.6843489290840321 -0.4707825813422857 0.6152222834732229 -0.502185770669493 0.5491196006101267 C -0.5668603090679016 0.534567829470484 -0.6331517109262765 0.5209861764068122 -0.7026768397045706 0.5093447594951006 C -0.7634709057990716 0.4985656697620324 -0.8254506717642165 0.489187861694263 -0.8886161375999995 0.4812113352917985 Z" fill="#262626" transform="matrix(1,0,0,1,0,0)" fill-rule="evenodd"></path></g><g clip-path="url(&quot;#SvgjsClipPath1008&quot;)"><path d=" M -1.2100485934400966 -0.03941869881541125 C -1.182095405304198 -0.0156302062500914 -1.155737508982344 0.00997152091498623 -1.1311456565940394 0.03722062918669761 C -1.0752506573058174 0.09949287158792466 -1.02714535578511 0.16833883358370136 -0.9878915540415552 0.24223891590966595 C -0.9765735098218318 0.26325814088914706 -0.9655788382941028 0.2852474839446113 -0.9555542848423506 0.30691345430808115 C -0.9474699675425464 0.324698952367643 -0.9393856502427422 0.34313119581118745 -0.9319480783269269 0.36156343925473194 C -0.8614528314726619 0.36932438386254174 -0.7925744480783508 0.3785944010329838 -0.7253129281440052 0.389373490766052 C -0.6742200428092617 0.39745780806585623 -0.6244206482424774 0.40618887074963683 -0.5765614898276532 0.4155666788174063 C -0.5917600063512785 0.3929305903779656 -0.6072818955668982 0.37061787463051316 -0.6237739028584885 0.3508921404189973 C -0.6527065679033837 0.3131445622550095 -0.684144627310908 0.2773851201110618 -0.7178753562281772 0.2438557793696256 C -0.7999558415805306 0.16156492940767317 -0.8947263920613318 0.09299821776949257 -0.9985628528772714 0.04077772879861122 C -1.0660752244645124 0.006758833912791452 -1.1369546360746043 -0.02011898578032996 -1.2100485934400966 -0.03941869881541125 Z" fill="#e8a941" transform="matrix(1,0,0,1,0,0)" fill-rule="evenodd"></path></g><g clip-path="url(&quot;#SvgjsClipPath1008&quot;)"><path d=" M -1.7617224059785332 -0.03941869881541125 C -1.8350378241883385 -0.02016173359279184 -1.9061360674185193 0.006716870555205479 -1.9738548919253227 0.040777728798623555 C -2.0776419571441087 0.0930794472694298 -2.1724002012166355 0.16163725519286978 -2.254542388574423 0.24385577936963176 C -2.2882060907326096 0.27744810276126086 -2.3196401277467946 0.3132029696055774 -2.348643841944112 0.35089214041900346 C -2.365135849235702 0.3722347380904789 -2.380981111143316 0.3945474538379314 -2.395856254974947 0.41556667881741244 C -2.3476737238681284 0.40618887074964305 -2.298844447377327 0.39745780806585623 -2.2471048166586014 0.38937349076605815 C -2.179843296724256 0.37870219193031734 -2.110641540637956 0.3693243838625479 -2.040469666475673 0.3615634392547381 C -2.033032094559858 0.34313119581119367 -2.0249477772600537 0.324698952367643 -2.0168634599602555 0.30659008161608675 C -2.0087791426604515 0.2884812108645367 -1.995197489596786 0.2619646501211818 -1.9845261907610512 0.24191554321767778 C -1.9452723890175028 0.16801546089170696 -1.8971670874967952 0.09916949889593027 -1.8412720882085731 0.03689725649470939 C -1.8163809480672857 0.009816753682805518 -1.7898119891367053 -0.01567216626685479 -1.7617224059785457 -0.03941869881541125 Z" fill="#262626" transform="matrix(1,0,0,1,0,0)" fill-rule="evenodd"></path></g></g></g><defs><clipPath id="SvgjsClipPath1009"><path d=" M -2.5724177448026126 -0.049443252267163285 h 2.1724177448026127 v 2.1248819590797807 h -2.1724177448026127 Z"></path></clipPath><clipPath id="SvgjsClipPath1008"><path d=" M -2.5724177448026126 -0.049443252267163285 L -0.3999999999999999 -0.049443252267163285 L -0.3999999999999999 2.0754387068126174 L -2.5724177448026126 2.0754387068126174 Z"></path></clipPath></defs></svg>