<svg xmlns="http://www.w3.org/2000/svg" version="1.1" xmlns:xlink="http://www.w3.org/1999/xlink" xmlns:svgjs="http://svgjs.dev/svgjs" viewBox="0 0 11.981539462592071 3.092424087025491"><g transform="matrix(1,0,0,1,3.056188808775468,0.5332143162400185)"><g><path d=" M 0.6825 1.146 L 0.252 0.6689999999999998 L 0.252 1.146 L 0.1155 1.146 L 0.1155 0.10049999999999981 L 0.252 0.10049999999999981 L 0.252 0.5849999999999999 L 0.684 0.10049999999999981 L 0.8565 0.10049999999999981 L 0.3825 0.6239999999999999 L 0.861 1.146 L 0.6825 1.146 Z M 1.77449853515625 0.7859999999999999 L 1.11749853515625 0.7859999999999999 Q 1.12499853515625 0.9074999999999999 1.20074853515625 0.9757499999999999 Q 1.2764985351562501 1.0439999999999998 1.38449853515625 1.0439999999999998 Q 1.47299853515625 1.0439999999999998 1.53224853515625 1.0027499999999998 Q 1.59149853515625 0.9614999999999999 1.61549853515625 0.8924999999999998 L 1.7624985351562499 0.8924999999999998 Q 1.72949853515625 1.011 1.63049853515625 1.0852499999999998 Q 1.53149853515625 1.1595 1.38449853515625 1.1595 Q 1.26749853515625 1.1595 1.17524853515625 1.107 Q 1.08299853515625 1.0545 1.0304985351562501 0.9577499999999999 Q 0.97799853515625 0.8609999999999999 0.97799853515625 0.7334999999999998 Q 0.97799853515625 0.6059999999999999 1.02899853515625 0.5099999999999999 Q 1.07999853515625 0.4139999999999999 1.17224853515625 0.36224999999999985 Q 1.26449853515625 0.3104999999999999 1.38449853515625 0.3104999999999999 Q 1.50149853515625 0.3104999999999999 1.59149853515625 0.36149999999999993 Q 1.68149853515625 0.41249999999999987 1.73024853515625 0.5017499999999999 Q 1.77899853515625 0.5909999999999999 1.77899853515625 0.7034999999999999 Q 1.77899853515625 0.7424999999999999 1.77449853515625 0.7859999999999999 Z M 1.60349853515625 0.5407499999999998 Q 1.56899853515625 0.48449999999999993 1.50974853515625 0.45524999999999993 Q 1.45049853515625 0.42599999999999993 1.37849853515625 0.42599999999999993 Q 1.27499853515625 0.42599999999999993 1.20224853515625 0.4919999999999999 Q 1.12949853515625 0.5579999999999999 1.11899853515625 0.6749999999999998 L 1.63799853515625 0.6749999999999998 Q 1.63799853515625 0.5969999999999999 1.60349853515625 0.5407499999999998 Z M 2.0954912109375 1.1272499999999999 Q 2.0204912109375 1.095 1.9769912109375 1.03725 Q 1.9334912109375 0.9794999999999999 1.9289912109375 0.9044999999999999 L 2.0699912109375 0.9044999999999999 Q 2.0759912109375 0.966 2.1277412109375 1.005 Q 2.1794912109375 1.0439999999999998 2.2634912109375 1.0439999999999998 Q 2.3414912109375 1.0439999999999998 2.3864912109375 1.0094999999999998 Q 2.4314912109375 0.9749999999999999 2.4314912109375 0.9224999999999999 Q 2.4314912109375 0.8684999999999998 2.3834912109375 0.8422499999999999 Q 2.3354912109375 0.8159999999999998 2.2349912109375 0.7905 Q 2.1434912109375 0.7665 2.0857412109375 0.7417499999999999 Q 2.0279912109375 0.7169999999999999 1.9867412109375 0.6682499999999999 Q 1.9454912109375 0.6194999999999999 1.9454912109375 0.5399999999999999 Q 1.9454912109375 0.47699999999999987 1.9829912109375 0.4244999999999999 Q 2.0204912109375 0.3719999999999999 2.0894912109375 0.34124999999999994 Q 2.1584912109375 0.3104999999999999 2.2469912109375 0.3104999999999999 Q 2.3834912109375 0.3104999999999999 2.4674912109375002 0.37949999999999984 Q 2.5514912109375 0.4484999999999999 2.5574912109375 0.5684999999999999 L 2.4209912109375002 0.5684999999999999 Q 2.4164912109375 0.5039999999999999 2.3692412109375 0.46499999999999986 Q 2.3219912109375 0.42599999999999993 2.2424912109375 0.42599999999999993 Q 2.1689912109375 0.42599999999999993 2.1254912109375 0.4574999999999999 Q 2.0819912109375 0.4889999999999999 2.0819912109375 0.5399999999999999 Q 2.0819912109375 0.5804999999999999 2.1082412109375 0.6067499999999999 Q 2.1344912109375 0.6329999999999999 2.1742412109375002 0.6487499999999999 Q 2.2139912109375 0.6644999999999999 2.2844912109375 0.6839999999999999 Q 2.3729912109375 0.708 2.4284912109375 0.73125 Q 2.4839912109375 0.7545 2.5237412109375 0.8009999999999999 Q 2.5634912109375 0.8474999999999999 2.5649912109375 0.9224999999999999 Q 2.5649912109375 0.9899999999999999 2.5274912109375 1.0439999999999998 Q 2.4899912109375 1.0979999999999999 2.4217412109375003 1.12875 Q 2.3534912109375 1.1595 2.2649912109375 1.1595 Q 2.1704912109375 1.1595 2.0954912109375 1.1272499999999999 Z M 3.3479501953125 0.3487499999999999 Q 3.4229501953125 0.38849999999999985 3.4657001953125 0.46799999999999986 Q 3.5084501953125 0.5474999999999999 3.5084501953125 0.6615 L 3.5084501953125 1.146 L 3.3734501953125 1.146 L 3.3734501953125 0.6809999999999998 Q 3.3734501953125 0.5579999999999999 3.3119501953125 0.4927499999999999 Q 3.2504501953125 0.4274999999999999 3.1439501953124998 0.4274999999999999 Q 3.0359501953125 0.4274999999999999 2.9722001953125 0.4949999999999999 Q 2.9084501953124997 0.5624999999999999 2.9084501953124997 0.6914999999999999 L 2.9084501953124997 1.146 L 2.7719501953125 1.146 L 2.7719501953125 0.03599999999999981 L 2.9084501953124997 0.03599999999999981 L 2.9084501953124997 0.44099999999999995 Q 2.9489501953125 0.3779999999999999 3.0202001953125 0.3434999999999999 Q 3.0914501953125 0.30899999999999994 3.1799501953125 0.30899999999999994 Q 3.2729501953125 0.30899999999999994 3.3479501953125 0.3487499999999999 Z M 3.746880615234375 0.5107499999999999 Q 3.797880615234375 0.41549999999999987 3.887130615234375 0.3629999999999999 Q 3.9763806152343752 0.3104999999999999 4.085880615234375 0.3104999999999999 Q 4.1938806152343755 0.3104999999999999 4.273380615234375 0.3569999999999999 Q 4.352880615234375 0.40349999999999986 4.391880615234375 0.47399999999999987 L 4.391880615234375 0.32399999999999984 L 4.529880615234375 0.32399999999999984 L 4.529880615234375 1.146 L 4.391880615234375 1.146 L 4.391880615234375 0.9929999999999999 Q 4.351380615234375 1.065 4.271130615234375 1.11225 Q 4.190880615234375 1.1595 4.084380615234375 1.1595 Q 3.974880615234375 1.1595 3.886380615234375 1.1055 Q 3.797880615234375 1.0514999999999999 3.746880615234375 0.954 Q 3.6958806152343753 0.8564999999999999 3.6958806152343753 0.7319999999999999 Q 3.6958806152343753 0.6059999999999999 3.746880615234375 0.5107499999999999 Z M 4.354380615234375 0.5714999999999999 Q 4.316880615234375 0.5025 4.253130615234375 0.4657499999999999 Q 4.189380615234375 0.42899999999999994 4.112880615234375 0.42899999999999994 Q 4.036380615234375 0.42899999999999994 3.973380615234375 0.46499999999999986 Q 3.910380615234375 0.5009999999999999 3.872880615234375 0.5699999999999998 Q 3.8353806152343752 0.6389999999999999 3.8353806152343752 0.7319999999999999 Q 3.8353806152343752 0.8264999999999999 3.872880615234375 0.8962499999999999 Q 3.910380615234375 0.966 3.973380615234375 1.0027499999999998 Q 4.036380615234375 1.0394999999999999 4.112880615234375 1.0394999999999999 Q 4.189380615234375 1.0394999999999999 4.253130615234375 1.0027499999999998 Q 4.316880615234375 0.966 4.354380615234375 0.8962499999999999 Q 4.391880615234375 0.8264999999999999 4.391880615234375 0.7334999999999998 Q 4.391880615234375 0.6404999999999998 4.354380615234375 0.5714999999999999 Z M 5.0818271484375 1.02 L 5.3368271484375 0.32399999999999984 L 5.4823271484375 0.32399999999999984 L 5.1598271484375005 1.146 L 5.0008271484375 1.146 L 4.6783271484375 0.32399999999999984 L 4.8253271484375 0.32399999999999984 L 5.0818271484375 1.02 Z M 5.778538330078125 1.1197499999999998 Q 5.696788330078125 1.083 5.650288330078125 1.01775 Q 5.603788330078125 0.9524999999999999 5.6022883300781245 0.8669999999999999 L 5.747788330078125 0.8669999999999999 Q 5.755288330078125 0.9404999999999999 5.808538330078125 0.9907499999999999 Q 5.861788330078125 1.041 5.963788330078125 1.041 Q 6.061288330078125 1.041 6.1175383300781245 0.9922499999999999 Q 6.173788330078125 0.9434999999999999 6.173788330078125 0.8669999999999999 Q 6.173788330078125 0.8069999999999999 6.1407883300781245 0.7694999999999999 Q 6.107788330078125 0.7319999999999999 6.058288330078125 0.7124999999999999 Q 6.008788330078125 0.6929999999999998 5.924788330078125 0.6704999999999999 Q 5.821288330078125 0.6434999999999998 5.759038330078125 0.6164999999999999 Q 5.696788330078125 0.5894999999999999 5.652538330078125 0.53175 Q 5.608288330078125 0.47399999999999987 5.608288330078125 0.37649999999999995 Q 5.608288330078125 0.2909999999999999 5.651788330078125 0.22499999999999987 Q 5.6952883300781245 0.15899999999999992 5.774038330078125 0.12299999999999978 Q 5.852788330078125 0.08699999999999997 5.954788330078125 0.08699999999999997 Q 6.101788330078125 0.08699999999999997 6.195538330078125 0.16049999999999986 Q 6.289288330078125 0.23399999999999987 6.301288330078124 0.3554999999999999 L 6.151288330078125 0.3554999999999999 Q 6.143788330078125 0.2954999999999999 6.088288330078125 0.24974999999999992 Q 6.032788330078125 0.20399999999999985 5.941288330078125 0.20399999999999985 Q 5.855788330078125 0.20399999999999985 5.801788330078125 0.24824999999999986 Q 5.747788330078125 0.29249999999999987 5.747788330078125 0.3719999999999999 Q 5.747788330078125 0.42899999999999994 5.780038330078125 0.46499999999999986 Q 5.8122883300781245 0.5009999999999999 5.8595383300781245 0.5197499999999999 Q 5.9067883300781245 0.5384999999999999 5.992288330078125 0.5624999999999999 Q 6.095788330078125 0.5909999999999999 6.158788330078125 0.6187499999999999 Q 6.221788330078125 0.6464999999999999 6.266788330078125 0.7042499999999998 Q 6.311788330078125 0.7619999999999999 6.311788330078125 0.8609999999999999 Q 6.311788330078125 0.9374999999999999 6.271288330078125 1.005 Q 6.230788330078125 1.0725 6.151288330078125 1.1144999999999998 Q 6.071788330078125 1.1564999999999999 5.963788330078125 1.1564999999999999 Q 5.8602883300781246 1.1564999999999999 5.778538330078125 1.1197499999999998 Z M 6.6770009765625 1.107 Q 6.5832509765625 1.0545 6.5300009765625 0.9577499999999999 Q 6.476750976562499 0.8609999999999999 6.476750976562499 0.7334999999999998 Q 6.476750976562499 0.6074999999999999 6.5315009765625 0.5107499999999999 Q 6.5862509765625 0.4139999999999999 6.6807509765625 0.36224999999999985 Q 6.7752509765625 0.3104999999999999 6.892250976562499 0.3104999999999999 Q 7.0092509765625 0.3104999999999999 7.1037509765625 0.36224999999999985 Q 7.1982509765625 0.4139999999999999 7.253000976562499 0.5099999999999999 Q 7.3077509765625 0.6059999999999999 7.3077509765625 0.7334999999999998 Q 7.3077509765625 0.8609999999999999 7.251500976562499 0.9577499999999999 Q 7.1952509765625 1.0545 7.0992509765625 1.107 Q 7.0032509765625 1.1595 6.8862509765625 1.1595 Q 6.7707509765625 1.1595 6.6770009765625 1.107 Z M 7.0242509765625 1.005 Q 7.088750976562499 0.9704999999999999 7.128500976562499 0.9015 Q 7.1682509765625 0.8324999999999999 7.1682509765625 0.7334999999999998 Q 7.1682509765625 0.6344999999999998 7.129250976562499 0.5654999999999999 Q 7.0902509765624995 0.49649999999999994 7.0272509765625 0.4627499999999999 Q 6.9642509765625 0.42899999999999994 6.8907509765625 0.42899999999999994 Q 6.8157509765625 0.42899999999999994 6.753500976562499 0.4627499999999999 Q 6.6912509765624995 0.49649999999999994 6.6537509765625 0.5654999999999999 Q 6.616250976562499 0.6344999999999998 6.616250976562499 0.7334999999999998 Q 6.616250976562499 0.8339999999999999 6.6530009765625 0.9029999999999999 Q 6.689750976562499 0.9719999999999999 6.7512509765625 1.00575 Q 6.8127509765625 1.0394999999999999 6.8862509765625 1.0394999999999999 Q 6.9597509765625 1.0394999999999999 7.0242509765625 1.005 Z M 7.837181396484374 0.4364999999999999 L 7.664681396484374 0.4364999999999999 L 7.664681396484374 1.146 L 7.528181396484374 1.146 L 7.528181396484374 0.4364999999999999 L 7.421681396484375 0.4364999999999999 L 7.421681396484375 0.32399999999999984 L 7.528181396484374 0.32399999999999984 L 7.528181396484374 0.26549999999999985 Q 7.528181396484374 0.12749999999999995 7.599431396484374 0.06374999999999997 Q 7.670681396484374 -2.220446049250313e-16 7.828181396484374 -2.220446049250313e-16 L 7.828181396484374 0.11399999999999988 Q 7.738181396484374 0.11399999999999988 7.701431396484375 0.14924999999999988 Q 7.664681396484374 0.1844999999999999 7.664681396484374 0.26549999999999985 L 7.664681396484374 0.32399999999999984 L 7.837181396484374 0.32399999999999984 L 7.837181396484374 0.4364999999999999 Z M 8.177650634765623 0.4364999999999999 L 8.177650634765623 0.9209999999999999 Q 8.177650634765623 0.9809999999999999 8.203150634765624 1.00575 Q 8.228650634765623 1.0305 8.291650634765624 1.0305 L 8.392150634765624 1.0305 L 8.392150634765624 1.146 L 8.269150634765625 1.146 Q 8.155150634765624 1.146 8.098150634765624 1.0935 Q 8.041150634765623 1.041 8.041150634765623 0.9209999999999999 L 8.041150634765623 0.4364999999999999 L 7.934650634765624 0.4364999999999999 L 7.934650634765624 0.32399999999999984 L 8.041150634765623 0.32399999999999984 L 8.041150634765623 0.11699999999999999 L 8.177650634765623 0.11699999999999999 L 8.177650634765623 0.32399999999999984 L 8.392150634765624 0.32399999999999984 L 8.392150634765624 0.4364999999999999 L 8.177650634765623 0.4364999999999999 Z" fill="#ffffff" fill-rule="nonzero"></path></g><g><path d=" M 0.2127272727272727 2.032813636363636 Q 0.15340909090909088 2.032813636363636 0.11318181818181818 2.014404545454545 Q 0.07295454545454545 1.9959954545454541 0.051477272727272726 1.9670181818181813 Q 0.03 1.9380409090909088 0.028636363636363633 1.905995454545454 Q 0.028636363636363633 1.9005409090909087 0.033068181818181816 1.8961090909090905 Q 0.0375 1.8916772727272724 0.04363636363636363 1.8916772727272724 L 0.0784090909090909 1.8916772727272724 Q 0.08659090909090908 1.8916772727272724 0.09068181818181817 1.8957681818181815 Q 0.09477272727272726 1.8998590909090904 0.09613636363636363 1.905313636363636 Q 0.10022727272727272 1.9216772727272724 0.11318181818181818 1.9376999999999995 Q 0.12613636363636363 1.9537227272727269 0.15034090909090908 1.9642909090909086 Q 0.17454545454545453 1.9748590909090906 0.2127272727272727 1.9748590909090906 Q 0.27136363636363636 1.9748590909090906 0.2989772727272727 1.954063636363636 Q 0.32659090909090904 1.9332681818181814 0.32659090909090904 1.8984954545454542 Q 0.32659090909090904 1.8746318181818178 0.31193181818181814 1.8599727272727269 Q 0.29727272727272724 1.845313636363636 0.2672727272727273 1.8337227272727268 Q 0.23727272727272725 1.8221318181818178 0.18954545454545452 1.8084954545454541 Q 0.13977272727272727 1.7941772727272722 0.10704545454545454 1.7771318181818179 Q 0.07431818181818181 1.7600863636363633 0.05829545454545454 1.7348590909090906 Q 0.04227272727272727 1.7096318181818178 0.04227272727272727 1.6707681818181814 Q 0.04227272727272727 1.6339499999999996 0.06204545454545454 1.604972727272727 Q 0.08181818181818182 1.5759954545454542 0.11931818181818181 1.5589499999999996 Q 0.1568181818181818 1.541904545454545 0.2093181818181818 1.541904545454545 Q 0.2515909090909091 1.541904545454545 0.2832954545454545 1.5531545454545452 Q 0.315 1.5644045454545452 0.3361363636363636 1.583154545454545 Q 0.35727272727272724 1.601904545454545 0.36818181818181817 1.6233818181818178 Q 0.37909090909090903 1.6448590909090905 0.37977272727272726 1.665313636363636 Q 0.37977272727272726 1.6700863636363632 0.37636363636363634 1.6745181818181814 Q 0.3729545454545454 1.6789499999999997 0.3654545454545454 1.6789499999999997 L 0.3293181818181818 1.6789499999999997 Q 0.3245454545454545 1.6789499999999997 0.31943181818181815 1.676222727272727 Q 0.3143181818181818 1.6734954545454541 0.3115909090909091 1.6659954545454543 Q 0.3075 1.6380409090909087 0.2802272727272727 1.6189499999999997 Q 0.25295454545454543 1.5998590909090906 0.2093181818181818 1.5998590909090906 Q 0.16499999999999998 1.5998590909090906 0.1373863636363636 1.616904545454545 Q 0.10977272727272726 1.6339499999999996 0.10977272727272726 1.6700863636363632 Q 0.10977272727272726 1.6932681818181814 0.12272727272727271 1.7086090909090905 Q 0.13568181818181818 1.7239499999999996 0.16363636363636364 1.7355409090909086 Q 0.19159090909090906 1.7471318181818178 0.23659090909090907 1.7600863636363633 Q 0.29113636363636364 1.7750863636363632 0.32590909090909087 1.7917909090909088 Q 0.36068181818181816 1.8084954545454541 0.37738636363636363 1.8333818181818178 Q 0.39409090909090905 1.8582681818181814 0.39409090909090905 1.8971318181818178 Q 0.39409090909090905 1.9400863636363632 0.3715909090909091 1.9704272727272722 Q 0.34909090909090906 2.0007681818181813 0.3085227272727272 2.0167909090909086 Q 0.26795454545454545 2.032813636363636 0.2127272727272727 2.032813636363636 Z M 0.6620101651278408 2.032813636363636 Q 0.6033738014914772 2.032813636363636 0.5617828924005681 2.0126999999999997 Q 0.5201919833096591 1.9925863636363632 0.4976919833096591 1.950654545454545 Q 0.47519198330965906 1.908722727272727 0.4724647105823863 1.845313636363636 Q 0.47178289240056814 1.815313636363636 0.47178289240056814 1.7876999999999996 Q 0.47178289240056814 1.7600863636363633 0.4724647105823863 1.7300863636363633 Q 0.47519198330965906 1.6673590909090905 0.49871471058238637 1.6254272727272725 Q 0.5222374378551136 1.5834954545454543 0.5641692560369318 1.5626999999999995 Q 0.6061010742187499 1.541904545454545 0.6620101651278408 1.541904545454545 Q 0.7172374378551136 1.541904545454545 0.7591692560369317 1.5626999999999995 Q 0.8011010742187499 1.5834954545454543 0.8249647105823863 1.6254272727272725 Q 0.8488283469460227 1.6673590909090905 0.8508738014914772 1.7300863636363633 Q 0.8522374378551136 1.7600863636363633 0.8522374378551136 1.7876999999999996 Q 0.8522374378551136 1.815313636363636 0.8508738014914772 1.845313636363636 Q 0.8488283469460227 1.908722727272727 0.8259874378551135 1.950654545454545 Q 0.8031465287642046 1.9925863636363632 0.7615556196732953 2.0126999999999997 Q 0.7199647105823863 2.032813636363636 0.6620101651278408 2.032813636363636 Z M 0.6620101651278408 1.9748590909090906 Q 0.7138283469460227 1.9748590909090906 0.7468965287642044 1.9434954545454541 Q 0.7799647105823864 1.9121318181818179 0.7826919833096591 1.841904545454545 Q 0.7840556196732954 1.8112227272727268 0.7840556196732954 1.7870181818181814 Q 0.7840556196732954 1.762813636363636 0.7826919833096591 1.732813636363636 Q 0.7813283469460226 1.6857681818181813 0.7653056196732955 1.6564499999999995 Q 0.7492828924005681 1.6271318181818177 0.722691983309659 1.613495454545454 Q 0.6961010742187499 1.5998590909090906 0.6620101651278408 1.5998590909090906 Q 0.6279192560369318 1.5998590909090906 0.6013283469460227 1.613495454545454 Q 0.5747374378551136 1.6271318181818177 0.5587147105823863 1.6564499999999995 Q 0.5426919833096591 1.6857681818181813 0.5406465287642045 1.732813636363636 Q 0.5399647105823864 1.762813636363636 0.5399647105823864 1.7870181818181814 Q 0.5399647105823864 1.8112227272727268 0.5406465287642045 1.841904545454545 Q 0.5433738014914773 1.9121318181818179 0.5767828924005681 1.9434954545454541 Q 0.6101919833096591 1.9748590909090906 0.6620101651278408 1.9748590909090906 Z M 0.9742426091974431 2.025995454545454 Q 0.9667426091974431 2.025995454545454 0.962651700106534 2.021563636363636 Q 0.958560791015625 2.017131818181818 0.958560791015625 2.010313636363636 L 0.958560791015625 1.5650863636363632 Q 0.958560791015625 1.5575863636363634 0.962651700106534 1.5531545454545452 Q 0.9667426091974431 1.5487227272727269 0.9742426091974431 1.5487227272727269 L 1.2524244273792613 1.5487227272727269 Q 1.2599244273792614 1.5487227272727269 1.2643562455610795 1.5531545454545452 Q 1.2687880637428977 1.5575863636363634 1.2687880637428977 1.5650863636363632 L 1.2687880637428977 1.5923590909090906 Q 1.2687880637428977 1.5998590909090906 1.2643562455610795 1.6039499999999998 Q 1.2599244273792614 1.6080409090909087 1.2524244273792613 1.6080409090909087 L 1.0246971546519885 1.6080409090909087 L 1.0246971546519885 1.7669045454545451 L 1.2387880637428976 1.7669045454545451 Q 1.2462880637428977 1.7669045454545451 1.2507198819247158 1.7713363636363633 Q 1.255151700106534 1.7757681818181814 1.255151700106534 1.7832681818181815 L 1.255151700106534 1.8105409090909088 Q 1.255151700106534 1.8173590909090906 1.2507198819247158 1.8217909090909088 Q 1.2462880637428977 1.826222727272727 1.2387880637428976 1.826222727272727 L 1.0246971546519885 1.826222727272727 L 1.0246971546519885 2.010313636363636 Q 1.0246971546519885 2.017131818181818 1.0202653364701704 2.021563636363636 Q 1.0158335182883522 2.025995454545454 1.0083335182883522 2.025995454545454 L 0.9742426091974431 2.025995454545454 Z M 1.4835501376065339 2.025995454545454 Q 1.476731955788352 2.025995454545454 1.4723001376065339 2.021563636363636 Q 1.4678683194247157 2.017131818181818 1.4678683194247157 2.010313636363636 L 1.4678683194247157 1.6094045454545451 L 1.3369592285156249 1.6094045454545451 Q 1.330141046697443 1.6094045454545451 1.325709228515625 1.604972727272727 Q 1.3212774103338067 1.6005409090909088 1.3212774103338067 1.593722727272727 L 1.3212774103338067 1.5650863636363632 Q 1.3212774103338067 1.5575863636363634 1.325709228515625 1.5531545454545452 Q 1.330141046697443 1.5487227272727269 1.3369592285156249 1.5487227272727269 L 1.6655955921519885 1.5487227272727269 Q 1.6730955921519886 1.5487227272727269 1.6775274103338067 1.5531545454545452 Q 1.6819592285156248 1.5575863636363634 1.6819592285156248 1.5650863636363632 L 1.6819592285156248 1.593722727272727 Q 1.6819592285156248 1.6005409090909088 1.6775274103338067 1.604972727272727 Q 1.6730955921519886 1.6094045454545451 1.6655955921519885 1.6094045454545451 L 1.5353683194247159 1.6094045454545451 L 1.5353683194247159 2.010313636363636 Q 1.5353683194247159 2.017131818181818 1.5309365012428975 2.021563636363636 Q 1.5265046830610793 2.025995454545454 1.5190046830610795 2.025995454545454 L 1.4835501376065339 2.025995454545454 Z M 1.8455816095525566 2.025995454545454 Q 1.8367179731889203 2.025995454545454 1.831604336825284 2.021222727272727 Q 1.8264907004616475 2.0164499999999994 1.824445245916193 2.007586363636363 L 1.7364907004616477 1.5698590909090906 Q 1.7358088822798294 1.567131818181818 1.7358088822798294 1.5650863636363632 Q 1.7358088822798294 1.5630409090909088 1.7358088822798294 1.5623590909090905 Q 1.7358088822798294 1.5569045454545452 1.7398997913707386 1.552813636363636 Q 1.7439907004616475 1.5487227272727269 1.749445245916193 1.5487227272727269 L 1.7848997913707385 1.5487227272727269 Q 1.7992179731889204 1.5487227272727269 1.8012634277343749 1.560313636363636 L 1.8708088822798294 1.9121318181818179 L 1.944445245916193 1.6707681818181814 Q 1.9464907004616476 1.6646318181818178 1.951604336825284 1.6595181818181814 Q 1.9567179731889204 1.654404545454545 1.966263427734375 1.654404545454545 L 1.9914907004616476 1.654404545454545 Q 2.0017179731889203 1.654404545454545 2.0064907004616477 1.6595181818181814 Q 2.0112634277343746 1.6646318181818178 2.012627064098011 1.6707681818181814 L 2.0869452459161932 1.9121318181818179 L 2.155808882279829 1.560313636363636 Q 2.157854336825284 1.5487227272727269 2.1728543368252837 1.5487227272727269 L 2.2083088822798294 1.5487227272727269 Q 2.2137634277343747 1.5487227272727269 2.217854336825284 1.552813636363636 Q 2.221945245916193 1.5569045454545452 2.221945245916193 1.5623590909090905 Q 2.221945245916193 1.5630409090909088 2.221604336825284 1.5650863636363632 Q 2.2212634277343746 1.567131818181818 2.2212634277343746 1.5698590909090906 L 2.133308882279829 2.007586363636363 Q 2.1312634277343747 2.0164499999999994 2.1261497913707386 2.021222727272727 Q 2.121036155007102 2.025995454545454 2.1121725186434657 2.025995454545454 L 2.085581609552557 2.025995454545454 Q 2.076036155007102 2.025995454545454 2.0705816095525567 2.021222727272727 Q 2.0651270640980113 2.0164499999999994 2.063081609552557 2.0089499999999996 L 1.9785361550071021 1.7491772727272723 L 1.8946725186434659 2.0089499999999996 Q 1.891945245916193 2.0164499999999994 1.8868316095525566 2.021222727272727 Q 1.8817179731889202 2.025995454545454 1.8721725186434657 2.025995454545454 L 1.8455816095525566 2.025995454545454 Z M 2.2675764604048294 2.025995454545454 Q 2.262121914950284 2.025995454545454 2.2580310058593747 2.0219045454545452 Q 2.2539400967684657 2.017813636363636 2.2539400967684657 2.0123590909090905 Q 2.2539400967684657 2.0089499999999996 2.2546219149502837 2.0048590909090906 L 2.423712824041193 1.563722727272727 Q 2.4264400967684656 1.5569045454545452 2.431212824041193 1.552813636363636 Q 2.4359855513139204 1.5487227272727269 2.4455310058593747 1.5487227272727269 L 2.491894642223011 1.5487227272727269 Q 2.501440096768466 1.5487227272727269 2.506212824041193 1.552813636363636 Q 2.51098555131392 1.5569045454545452 2.513712824041193 1.563722727272727 L 2.682121914950284 2.0048590909090906 Q 2.68348555131392 2.0089499999999996 2.68348555131392 2.0123590909090905 Q 2.68348555131392 2.017813636363636 2.679394642223011 2.0219045454545452 Q 2.675303733132102 2.025995454545454 2.6698491876775567 2.025995454545454 L 2.635076460404829 2.025995454545454 Q 2.6268946422230113 2.025995454545454 2.623144642223011 2.0219045454545452 Q 2.619394642223011 2.017813636363636 2.6180310058593745 2.014404545454545 L 2.580531005859375 1.9175863636363633 L 2.3568946422230113 1.9175863636363633 L 2.319394642223011 2.014404545454545 Q 2.318712824041193 2.017813636363636 2.314621914950284 2.0219045454545452 Q 2.310531005859375 2.025995454545454 2.3023491876775566 2.025995454545454 L 2.2675764604048294 2.025995454545454 Z M 2.3766673694957383 1.8589499999999997 L 2.5607582785866474 1.8589499999999997 L 2.468712824041193 1.616904545454545 L 2.3766673694957383 1.8589499999999997 Z M 2.778928444602273 2.025995454545454 Q 2.7714284446022726 2.025995454545454 2.7673375355113636 2.021563636363636 Q 2.7632466264204543 2.017131818181818 2.7632466264204543 2.010313636363636 L 2.7632466264204543 1.5650863636363632 Q 2.7632466264204543 1.5575863636363634 2.7673375355113636 1.5531545454545452 Q 2.7714284446022726 1.5487227272727269 2.778928444602273 1.5487227272727269 L 2.945292080965909 1.5487227272727269 Q 3.0223375355113635 1.5487227272727269 3.0673375355113635 1.5848590909090905 Q 3.1123375355113634 1.6209954545454541 3.1123375355113634 1.6919045454545452 Q 3.1123375355113634 1.7444045454545452 3.0860875355113637 1.7774727272727269 Q 3.0598375355113636 1.8105409090909088 3.0148375355113637 1.8234954545454543 L 3.1198375355113637 2.0048590909090906 Q 3.121882990056818 2.0089499999999996 3.121882990056818 2.0123590909090905 Q 3.121882990056818 2.017813636363636 3.117451171875 2.0219045454545452 Q 3.113019353693182 2.025995454545454 3.1075648082386365 2.025995454545454 L 3.0748375355113637 2.025995454545454 Q 3.0632466264204545 2.025995454545454 3.057792080965909 2.0198590909090903 Q 3.0523375355113638 2.013722727272727 3.0482466264204544 2.007586363636363 L 2.9493829900568183 1.834404545454545 L 2.830064808238636 1.834404545454545 L 2.830064808238636 2.010313636363636 Q 2.830064808238636 2.017131818181818 2.825632990056818 2.021563636363636 Q 2.821201171875 2.025995454545454 2.813701171875 2.025995454545454 L 2.778928444602273 2.025995454545454 Z M 2.830064808238636 1.7764499999999996 L 2.9425648082386364 1.7764499999999996 Q 2.9937011718749997 1.7764499999999996 3.0189284446022726 1.754972727272727 Q 3.0441557173295455 1.7334954545454542 3.0441557173295455 1.691222727272727 Q 3.0441557173295455 1.6496318181818177 3.019269353693182 1.627813636363636 Q 2.994382990056818 1.6059954545454542 2.9425648082386364 1.6059954545454542 L 2.830064808238636 1.6059954545454542 L 2.830064808238636 1.7764499999999996 Z M 3.232315895774148 2.025995454545454 Q 3.2248158957741477 2.025995454545454 3.220724986683239 2.021563636363636 Q 3.2166340775923294 2.017131818181818 3.2166340775923294 2.010313636363636 L 3.2166340775923294 1.5650863636363632 Q 3.2166340775923294 1.5575863636363634 3.220724986683239 1.5531545454545452 Q 3.2248158957741477 1.5487227272727269 3.232315895774148 1.5487227272727269 L 3.513906804865057 1.5487227272727269 Q 3.521406804865057 1.5487227272727269 3.525497713955966 1.5531545454545452 Q 3.529588623046875 1.5575863636363634 3.529588623046875 1.5650863636363632 L 3.529588623046875 1.590995454545454 Q 3.529588623046875 1.5984954545454542 3.525497713955966 1.6025863636363633 Q 3.521406804865057 1.6066772727272722 3.513906804865057 1.6066772727272722 L 3.2820886230468753 1.6066772727272722 L 3.2820886230468753 1.7559954545454541 L 3.498906804865057 1.7559954545454541 Q 3.506406804865057 1.7559954545454541 3.510497713955966 1.7604272727272723 Q 3.5145886230468752 1.7648590909090904 3.5145886230468752 1.7723590909090905 L 3.5145886230468752 1.7975863636363631 Q 3.5145886230468752 1.804404545454545 3.510497713955966 1.8088363636363634 Q 3.506406804865057 1.8132681818181815 3.498906804865057 1.8132681818181815 L 3.2820886230468753 1.8132681818181815 L 3.2820886230468753 1.9680409090909088 L 3.519361350319602 1.9680409090909088 Q 3.5268613503196025 1.9680409090909088 3.5309522594105114 1.9721318181818177 Q 3.5350431685014208 1.9762227272727269 3.5350431685014208 1.983722727272727 L 3.5350431685014208 2.010313636363636 Q 3.5350431685014208 2.017131818181818 3.5309522594105114 2.021563636363636 Q 3.5268613503196025 2.025995454545454 3.519361350319602 2.025995454545454 L 3.232315895774148 2.025995454545454 Z M 3.982283269708807 2.032813636363636 Q 3.9195559969815346 2.032813636363636 3.8783059969815343 2.0096318181818176 Q 3.8370559969815345 1.9864499999999996 3.815919633345171 1.9448590909090906 Q 3.794783269708807 1.9032681818181814 3.7927378151633526 1.8480409090909087 Q 3.7920559969815346 1.8200863636363633 3.7920559969815346 1.7880409090909086 Q 3.7920559969815346 1.7559954545454541 3.7927378151633526 1.7266772727272723 Q 3.794783269708807 1.6714499999999997 3.815919633345171 1.6298590909090906 Q 3.8370559969815345 1.5882681818181814 3.8783059969815343 1.5650863636363632 Q 3.9195559969815346 1.541904545454545 3.982283269708807 1.541904545454545 Q 4.0293287242542615 1.541904545454545 4.0647832697088075 1.5548590909090905 Q 4.100237815163353 1.5678136363636361 4.12376054243608 1.5896318181818179 Q 4.147283269708807 1.6114499999999996 4.159555996981535 1.6383818181818177 Q 4.1718287242542615 1.665313636363636 4.1731923606178984 1.6939499999999996 Q 4.173874178799716 1.7000863636363632 4.169442360617898 1.7041772727272724 Q 4.16501054243608 1.7082681818181815 4.158874178799716 1.7082681818181815 L 4.121374178799717 1.7082681818181815 Q 4.115237815163352 1.7082681818181815 4.110805996981535 1.7048590909090906 Q 4.106374178799716 1.7014499999999997 4.104328724254262 1.6925863636363632 Q 4.092737815163352 1.6394045454545452 4.061033269708807 1.619631818181818 Q 4.0293287242542615 1.5998590909090906 3.982283269708807 1.5998590909090906 Q 3.9270559969815344 1.5998590909090906 3.89501054243608 1.6308818181818179 Q 3.8629650878906254 1.6619045454545451 3.860919633345171 1.7300863636363633 Q 3.8588741787997165 1.7859954545454542 3.860919633345171 1.8446318181818178 Q 3.8629650878906254 1.9128136363636359 3.89501054243608 1.9438363636363634 Q 3.9270559969815344 1.9748590909090906 3.982283269708807 1.9748590909090906 Q 4.0293287242542615 1.9748590909090906 4.061033269708807 1.9550863636363633 Q 4.092737815163352 1.935313636363636 4.104328724254262 1.8821318181818179 Q 4.106374178799716 1.8732681818181813 4.110805996981535 1.8698590909090904 Q 4.115237815163352 1.8664499999999995 4.121374178799717 1.8664499999999995 L 4.158874178799716 1.8664499999999995 Q 4.16501054243608 1.8664499999999995 4.169442360617898 1.8701999999999996 Q 4.173874178799716 1.8739499999999996 4.1731923606178984 1.8800863636363632 Q 4.1718287242542615 1.908722727272727 4.159555996981535 1.935995454545454 Q 4.147283269708807 1.9632681818181814 4.12376054243608 1.9850863636363631 Q 4.100237815163353 2.006904545454545 4.0647832697088075 2.0198590909090903 Q 4.0293287242542615 2.032813636363636 3.982283269708807 2.032813636363636 Z M 4.287025035511364 2.025995454545454 Q 4.279525035511364 2.025995454545454 4.275434126420455 2.021563636363636 Q 4.271343217329546 2.017131818181818 4.271343217329546 2.010313636363636 L 4.271343217329546 1.5650863636363632 Q 4.271343217329546 1.5575863636363634 4.275434126420455 1.5531545454545452 Q 4.279525035511364 1.5487227272727269 4.287025035511364 1.5487227272727269 L 4.453388671875 1.5487227272727269 Q 4.530434126420455 1.5487227272727269 4.575434126420455 1.5848590909090905 Q 4.620434126420455 1.6209954545454541 4.620434126420455 1.6919045454545452 Q 4.620434126420455 1.7444045454545452 4.594184126420455 1.7774727272727269 Q 4.567934126420455 1.8105409090909088 4.522934126420455 1.8234954545454543 L 4.627934126420455 2.0048590909090906 Q 4.62997958096591 2.0089499999999996 4.62997958096591 2.0123590909090905 Q 4.62997958096591 2.017813636363636 4.625547762784091 2.0219045454545452 Q 4.621115944602273 2.025995454545454 4.6156613991477276 2.025995454545454 L 4.582934126420455 2.025995454545454 Q 4.571343217329546 2.025995454545454 4.565888671875 2.0198590909090903 Q 4.560434126420455 2.013722727272727 4.556343217329546 2.007586363636363 L 4.457479580965909 1.834404545454545 L 4.338161399147728 1.834404545454545 L 4.338161399147728 2.010313636363636 Q 4.338161399147728 2.017131818181818 4.33372958096591 2.021563636363636 Q 4.329297762784091 2.025995454545454 4.321797762784091 2.025995454545454 L 4.287025035511364 2.025995454545454 Z M 4.338161399147728 1.7764499999999996 L 4.4506613991477275 1.7764499999999996 Q 4.501797762784092 1.7764499999999996 4.527025035511365 1.754972727272727 Q 4.552252308238637 1.7334954545454542 4.552252308238637 1.691222727272727 Q 4.552252308238637 1.6496318181818177 4.527365944602273 1.627813636363636 Q 4.502479580965909 1.6059954545454542 4.4506613991477275 1.6059954545454542 L 4.338161399147728 1.6059954545454542 L 4.338161399147728 1.7764499999999996 Z M 4.74041248668324 2.025995454545454 Q 4.732912486683239 2.025995454545454 4.72882157759233 2.021563636363636 Q 4.724730668501421 2.017131818181818 4.724730668501421 2.010313636363636 L 4.724730668501421 1.5650863636363632 Q 4.724730668501421 1.5575863636363634 4.72882157759233 1.5531545454545452 Q 4.732912486683239 1.5487227272727269 4.74041248668324 1.5487227272727269 L 5.022003395774148 1.5487227272727269 Q 5.029503395774149 1.5487227272727269 5.0335943048650575 1.5531545454545452 Q 5.0376852139559665 1.5575863636363634 5.0376852139559665 1.5650863636363632 L 5.0376852139559665 1.590995454545454 Q 5.0376852139559665 1.5984954545454542 5.0335943048650575 1.6025863636363633 Q 5.029503395774149 1.6066772727272722 5.022003395774148 1.6066772727272722 L 4.790185213955967 1.6066772727272722 L 4.790185213955967 1.7559954545454541 L 5.007003395774149 1.7559954545454541 Q 5.014503395774148 1.7559954545454541 5.018594304865058 1.7604272727272723 Q 5.022685213955967 1.7648590909090904 5.022685213955967 1.7723590909090905 L 5.022685213955967 1.7975863636363631 Q 5.022685213955967 1.804404545454545 5.018594304865058 1.8088363636363634 Q 5.014503395774148 1.8132681818181815 5.007003395774149 1.8132681818181815 L 4.790185213955967 1.8132681818181815 L 4.790185213955967 1.9680409090909088 L 5.027457941228694 1.9680409090909088 Q 5.034957941228694 1.9680409090909088 5.039048850319603 1.9721318181818177 Q 5.043139759410512 1.9762227272727269 5.043139759410512 1.983722727272727 L 5.043139759410512 2.010313636363636 Q 5.043139759410512 2.017131818181818 5.039048850319603 2.021563636363636 Q 5.034957941228694 2.025995454545454 5.027457941228694 2.025995454545454 L 4.74041248668324 2.025995454545454 Z M 5.112655917080967 2.025995454545454 Q 5.107201371626421 2.025995454545454 5.103110462535512 2.0219045454545452 Q 5.099019553444603 2.017813636363636 5.099019553444603 2.0123590909090905 Q 5.099019553444603 2.0089499999999996 5.099701371626422 2.0048590909090906 L 5.268792280717331 1.563722727272727 Q 5.2715195534446035 1.5569045454545452 5.27629228071733 1.552813636363636 Q 5.281065007990057 1.5487227272727269 5.290610462535512 1.5487227272727269 L 5.336974098899149 1.5487227272727269 Q 5.346519553444603 1.5487227272727269 5.35129228071733 1.552813636363636 Q 5.356065007990058 1.5569045454545452 5.3587922807173305 1.563722727272727 L 5.527201371626421 2.0048590909090906 Q 5.528565007990058 2.0089499999999996 5.528565007990058 2.0123590909090905 Q 5.528565007990058 2.017813636363636 5.524474098899149 2.0219045454545452 Q 5.520383189808239 2.025995454545454 5.514928644353694 2.025995454545454 L 5.480155917080967 2.025995454545454 Q 5.471974098899149 2.025995454545454 5.468224098899149 2.0219045454545452 Q 5.4644740988991485 2.017813636363636 5.4631104625355125 2.014404545454545 L 5.425610462535512 1.9175863636363633 L 5.201974098899148 1.9175863636363633 L 5.164474098899149 2.014404545454545 Q 5.16379228071733 2.017813636363636 5.159701371626421 2.0219045454545452 Q 5.155610462535512 2.025995454545454 5.1474286443536945 2.025995454545454 L 5.112655917080967 2.025995454545454 Z M 5.221746826171876 1.8589499999999997 L 5.405837735262785 1.8589499999999997 L 5.313792280717331 1.616904545454545 L 5.221746826171876 1.8589499999999997 Z M 5.677847234552558 2.025995454545454 Q 5.671029052734376 2.025995454545454 5.666597234552557 2.021563636363636 Q 5.66216541637074 2.017131818181818 5.66216541637074 2.010313636363636 L 5.66216541637074 1.6094045454545451 L 5.531256325461649 1.6094045454545451 Q 5.524438143643467 1.6094045454545451 5.520006325461648 1.604972727272727 Q 5.51557450727983 1.6005409090909088 5.51557450727983 1.593722727272727 L 5.51557450727983 1.5650863636363632 Q 5.51557450727983 1.5575863636363634 5.520006325461648 1.5531545454545452 Q 5.524438143643467 1.5487227272727269 5.531256325461649 1.5487227272727269 L 5.859892689098012 1.5487227272727269 Q 5.867392689098012 1.5487227272727269 5.87182450727983 1.5531545454545452 Q 5.8762563254616484 1.5575863636363634 5.8762563254616484 1.5650863636363632 L 5.8762563254616484 1.593722727272727 Q 5.8762563254616484 1.6005409090909088 5.87182450727983 1.604972727272727 Q 5.867392689098012 1.6094045454545451 5.859892689098012 1.6094045454545451 L 5.7296654163707395 1.6094045454545451 L 5.7296654163707395 2.010313636363636 Q 5.7296654163707395 2.017131818181818 5.725233598188921 2.021563636363636 Q 5.720801780007103 2.025995454545454 5.713301780007103 2.025995454545454 L 5.677847234552558 2.025995454545454 Z M 6.121005082563921 2.032813636363636 Q 6.062368718927558 2.032813636363636 6.020777809836648 2.0126999999999997 Q 5.979186900745739 1.9925863636363632 5.956686900745739 1.950654545454545 Q 5.934186900745739 1.908722727272727 5.931459628018467 1.845313636363636 Q 5.930777809836648 1.815313636363636 5.930777809836648 1.7876999999999996 Q 5.930777809836648 1.7600863636363633 5.931459628018467 1.7300863636363633 Q 5.934186900745739 1.6673590909090905 5.957709628018466 1.6254272727272725 Q 5.981232355291194 1.5834954545454543 6.0231641734730115 1.5626999999999995 Q 6.06509599165483 1.541904545454545 6.121005082563921 1.541904545454545 Q 6.1762323552911935 1.541904545454545 6.218164173473012 1.5626999999999995 Q 6.26009599165483 1.5834954545454543 6.283959628018467 1.6254272727272725 Q 6.307823264382103 1.6673590909090905 6.309868718927557 1.7300863636363633 Q 6.311232355291193 1.7600863636363633 6.311232355291193 1.7876999999999996 Q 6.311232355291193 1.815313636363636 6.309868718927557 1.845313636363636 Q 6.307823264382103 1.908722727272727 6.284982355291194 1.950654545454545 Q 6.2621414462002845 1.9925863636363632 6.220550537109376 2.0126999999999997 Q 6.178959628018466 2.032813636363636 6.121005082563921 2.032813636363636 Z M 6.121005082563921 1.9748590909090906 Q 6.172823264382103 1.9748590909090906 6.205891446200285 1.9434954545454541 Q 6.238959628018466 1.9121318181818179 6.241686900745739 1.841904545454545 Q 6.243050537109376 1.8112227272727268 6.243050537109376 1.7870181818181814 Q 6.243050537109376 1.762813636363636 6.241686900745739 1.732813636363636 Q 6.240323264382103 1.6857681818181813 6.224300537109375 1.6564499999999995 Q 6.208277809836648 1.6271318181818177 6.181686900745739 1.613495454545454 Q 6.1550959916548305 1.5998590909090906 6.121005082563921 1.5998590909090906 Q 6.086914173473012 1.5998590909090906 6.060323264382103 1.613495454545454 Q 6.0337323552911934 1.6271318181818177 6.0177096280184665 1.6564499999999995 Q 6.001686900745739 1.6857681818181813 5.999641446200284 1.732813636363636 Q 5.998959628018467 1.762813636363636 5.998959628018467 1.7870181818181814 Q 5.998959628018467 1.8112227272727268 5.999641446200284 1.841904545454545 Q 6.002368718927557 1.9121318181818179 6.035777809836648 1.9434954545454541 Q 6.0691869007457395 1.9748590909090906 6.121005082563921 1.9748590909090906 Z M 6.4332375266335236 2.025995454545454 Q 6.425737526633523 2.025995454545454 6.421646617542614 2.021563636363636 Q 6.417555708451705 2.017131818181818 6.417555708451705 2.010313636363636 L 6.417555708451705 1.5650863636363632 Q 6.417555708451705 1.5575863636363634 6.421646617542614 1.5531545454545452 Q 6.425737526633523 1.5487227272727269 6.4332375266335236 1.5487227272727269 L 6.59960116299716 1.5487227272727269 Q 6.676646617542614 1.5487227272727269 6.721646617542614 1.5848590909090905 Q 6.766646617542614 1.6209954545454541 6.766646617542614 1.6919045454545452 Q 6.766646617542614 1.7444045454545452 6.740396617542614 1.7774727272727269 Q 6.714146617542614 1.8105409090909088 6.669146617542614 1.8234954545454543 L 6.774146617542614 2.0048590909090906 Q 6.776192072088069 2.0089499999999996 6.776192072088069 2.0123590909090905 Q 6.776192072088069 2.017813636363636 6.77176025390625 2.0219045454545452 Q 6.7673284357244325 2.025995454545454 6.761873890269887 2.025995454545454 L 6.7291466175426145 2.025995454545454 Q 6.717555708451705 2.025995454545454 6.712101162997159 2.0198590909090903 Q 6.7066466175426145 2.013722727272727 6.702555708451706 2.007586363636363 L 6.6036920720880685 1.834404545454545 L 6.484373890269887 1.834404545454545 L 6.484373890269887 2.010313636363636 Q 6.484373890269887 2.017131818181818 6.479942072088069 2.021563636363636 Q 6.475510253906251 2.025995454545454 6.46801025390625 2.025995454545454 L 6.4332375266335236 2.025995454545454 Z M 6.484373890269887 1.7764499999999996 L 6.596873890269887 1.7764499999999996 Q 6.648010253906251 1.7764499999999996 6.673237526633524 1.754972727272727 Q 6.698464799360796 1.7334954545454542 6.698464799360796 1.691222727272727 Q 6.698464799360796 1.6496318181818177 6.6735784357244325 1.627813636363636 Q 6.6486920720880684 1.6059954545454542 6.596873890269887 1.6059954545454542 L 6.484373890269887 1.6059954545454542 L 6.484373890269887 1.7764499999999996 Z M 7.024352250532671 2.032813636363636 Q 6.965034068714489 2.032813636363636 6.924806795987217 2.014404545454545 Q 6.884579523259944 1.9959954545454541 6.8631022505326715 1.9670181818181813 Q 6.841624977805399 1.9380409090909088 6.840261341441762 1.905995454545454 Q 6.840261341441762 1.9005409090909087 6.8446931596235805 1.8961090909090905 Q 6.849124977805398 1.8916772727272724 6.8552613414417625 1.8916772727272724 L 6.890034068714489 1.8916772727272724 Q 6.898215886896308 1.8916772727272724 6.902306795987217 1.8957681818181815 Q 6.906397705078126 1.8998590909090904 6.907761341441762 1.905313636363636 Q 6.911852250532672 1.9216772727272724 6.924806795987217 1.9376999999999995 Q 6.937761341441762 1.9537227272727269 6.961965886896308 1.9642909090909086 Q 6.986170432350853 1.9748590909090906 7.024352250532671 1.9748590909090906 Q 7.082988614169035 1.9748590909090906 7.110602250532671 1.954063636363636 Q 7.138215886896307 1.9332681818181814 7.138215886896307 1.8984954545454542 Q 7.138215886896307 1.8746318181818178 7.123556795987216 1.8599727272727269 Q 7.1088977050781255 1.845313636363636 7.078897705078126 1.8337227272727268 Q 7.048897705078126 1.8221318181818178 7.001170432350853 1.8084954545454541 Q 6.951397705078126 1.7941772727272722 6.918670432350853 1.7771318181818179 Q 6.88594315962358 1.7600863636363633 6.869920432350853 1.7348590909090906 Q 6.853897705078126 1.7096318181818178 6.853897705078126 1.6707681818181814 Q 6.853897705078126 1.6339499999999996 6.8736704323508535 1.604972727272727 Q 6.893443159623581 1.5759954545454542 6.93094315962358 1.5589499999999996 Q 6.968443159623581 1.541904545454545 7.02094315962358 1.541904545454545 Q 7.063215886896308 1.541904545454545 7.094920432350853 1.5531545454545452 Q 7.126624977805399 1.5644045454545452 7.147761341441762 1.583154545454545 Q 7.168897705078126 1.601904545454545 7.179806795987217 1.6233818181818178 Q 7.1907158868963075 1.6448590909090905 7.191397705078126 1.665313636363636 Q 7.191397705078126 1.6700863636363632 7.187988614169035 1.6745181818181814 Q 7.184579523259944 1.6789499999999997 7.177079523259944 1.6789499999999997 L 7.14094315962358 1.6789499999999997 Q 7.136170432350853 1.6789499999999997 7.131056795987217 1.676222727272727 Q 7.1259431596235805 1.6734954545454541 7.123215886896308 1.6659954545454543 Q 7.119124977805399 1.6380409090909087 7.091852250532671 1.6189499999999997 Q 7.064579523259944 1.5998590909090906 7.02094315962358 1.5998590909090906 Q 6.976624977805399 1.5998590909090906 6.9490113414417625 1.616904545454545 Q 6.9213977050781255 1.6339499999999996 6.9213977050781255 1.6700863636363632 Q 6.9213977050781255 1.6932681818181814 6.934352250532672 1.7086090909090905 Q 6.947306795987217 1.7239499999999996 6.975261341441763 1.7355409090909086 Q 7.0032158868963075 1.7471318181818178 7.048215886896307 1.7600863636363633 Q 7.102761341441762 1.7750863636363632 7.13753406871449 1.7917909090909088 Q 7.172306795987216 1.8084954545454541 7.189011341441762 1.8333818181818178 Q 7.205715886896307 1.8582681818181814 7.205715886896307 1.8971318181818178 Q 7.205715886896307 1.9400863636363632 7.183215886896308 1.9704272727272722 Q 7.160715886896307 2.0007681818181813 7.120147705078126 2.0167909090909086 Q 7.079579523259944 2.032813636363636 7.024352250532671 2.032813636363636 Z" fill="#e8a941" fill-rule="nonzero"></path></g><g clip-path="url(&quot;#SvgjsClipPath1009&quot;)"><g clip-path="url(&quot;#SvgjsClipPath1008&quot;)"><path d=" M -2.15591371751685 0.957215937904097 C -2.1538761066128407 0.8705767175464924 -2.146206772195454 0.7841616818576224 -2.132954256385415 0.6985177843104425 C -2.12124942109567 0.6246999697393312 -2.1045026468207 0.5517704688644699 -2.0828314891266424 0.48024121721582147 C -2.1475060275250573 0.4880021618236313 -2.2094857934902024 0.49694880630207283 -2.268770787022071 0.5070811506511583 C -2.3386192884923536 0.5187225675628762 -2.405557435734711 0.5323042206265418 -2.469261856057143 0.5468559917661845 C -2.500665045384356 0.6129586746292807 -2.525260262553096 0.6820853202400899 -2.542667457139345 0.7531677692571118 C -2.55901394927029 0.8197614660152047 -2.568975760221299 0.8877616538111808 -2.572417744802625 0.9562458198281263 Z" fill="#bdbfc3" transform="matrix(1,0,0,1,0,0)" fill-rule="evenodd"></path></g><g clip-path="url(&quot;#SvgjsClipPath1008&quot;)"><path d=" M -2.0828314891266424 1.5451074919456462 C -2.1045023300474592 1.4734685309526867 -2.1212489825540155 1.4004315174402313 -2.132954256385415 1.3265075521590122 C -2.1463970211550536 1.2408868983182844 -2.154067475493575 1.1544592437998509 -2.15591371751685 1.06780939856537 L -2.5724177448026126 1.06780939856537 C -2.568999316772362 1.136295874680797 -2.5590371785793353 1.2042982962593298 -2.542667457139345 1.2708874491363844 C -2.525209113918649 1.3419545690688122 -2.5006157092769463 1.4110761204406628 -2.4692618560571367 1.477199226627318 C -2.4045873176587276 1.491643206869627 -2.33775696131371 1.5049014872413045 -2.268770787022071 1.516974067742344 C -2.2086234663115465 1.527968739270067 -2.1466437003464014 1.5373465473378363 -2.0828314891266424 1.5451074919456462 Z" fill="#262626" transform="matrix(1,0,0,1,0,0)" fill-rule="evenodd"></path></g><g clip-path="url(&quot;#SvgjsClipPath1008&quot;)"><path d=" M -1.7617224059785332 2.0654141533608614 C -1.7896755941144442 2.0416256607955416 -1.8160334904362982 2.016023933630464 -1.840625342824609 1.9887748253587465 C -1.8964496487642566 1.9263288384207757 -1.9445475558122238 1.857384885880232 -1.9838794453770872 1.7834331659437899 C -1.9951974895968043 1.7624139409643087 -2.0061921611245275 1.7404245979088508 -2.0162167145762853 1.7187586275453808 C -2.0262412680280373 1.697092657181911 -2.032385349175888 1.6822175133502801 -2.039822921091709 1.6637852699067295 C -2.1103181679459677 1.656024325298926 -2.1795199240322676 1.6466465172311564 -2.246781443966613 1.6359752183954157 C -2.2978743293013566 1.6278909010956115 -2.3473503511761464 1.6191598384118246 -2.3952095095909707 1.609458657652073 C -2.380010993067345 1.6324181187835083 -2.3644891038517257 1.6547308345309606 -2.3479970965601353 1.6760734322024362 C -2.3188998251375508 1.7136855166774771 -2.2874709104572903 1.7494345570869763 -2.2538956431904467 1.7831097932518079 C -2.1718151578380933 1.865400643213754 -2.0770446073572923 1.933967354851941 -1.9732081465413587 1.9861878438228162 C -1.9056572381033745 2.0198732720533012 -1.8347789942194321 2.0464255193798526 -1.761722405978527 2.0654141533608676 Z" fill="#e8a941" transform="matrix(1,0,0,1,0,0)" fill-rule="evenodd"></path></g><g clip-path="url(&quot;#SvgjsClipPath1008&quot;)"><path d=" M -1.9137075712147982 1.6744565687424704 L -1.9098270989108963 1.6831876314262573 C -1.9023895269950808 1.6983861479498825 -1.894628582387271 1.7155249006254616 -1.885897519703478 1.7300766717651044 C -1.8420174063850956 1.814021213808998 -1.785035507747436 1.890433721560658 -1.7170969744836284 1.9564375561595422 C -1.66580047467205 2.005571459606913 -1.6068152221811338 2.045987280758099 -1.5424757208079167 2.0760854521966023 L -1.5424757208079167 1.6925654394940266 C -1.6093060771529468 1.6925654394940266 -1.6749507336273388 1.6907329942394 -1.7394096902310872 1.687068103730159 C -1.79826352017364 1.6835110041182453 -1.8564706047322108 1.6796305318143436 -1.9137075712147982 1.6744565687424704 Z" fill="#262626" transform="matrix(1,0,0,1,0,0)" fill-rule="evenodd"></path></g><g clip-path="url(&quot;#SvgjsClipPath1008&quot;)"><path d=" M -2.044026766087593 1.0691028893333476 C -2.0419809035606025 1.154173315175482 -2.033984849248179 1.2389963237600723 -2.020097186880181 1.3229504525471232 C -2.00699941190367 1.4029410811034082 -1.987204053243796 1.4816898303076838 -1.9609199842456335 1.5583657723173236 C -1.8919338099539948 1.5648332261571682 -1.8215463539970695 1.569899398331708 -1.7497576163748274 1.573564288840949 C -1.6812026056725102 1.5770135975555288 -1.612108640483544 1.5791694155021438 -1.542475720807923 1.5800317426807873 L -1.542475720807923 1.0691028893333414 Z" fill="#bdbfc3" transform="matrix(1,0,0,1,0,0)" fill-rule="evenodd"></path></g><g clip-path="url(&quot;#SvgjsClipPath1008&quot;)"><path d=" M -1.960919984245646 0.46795305492011485 C -1.9871661883048084 0.5445299456641547 -2.006960932551142 0.623168082642739 -2.020097186880187 0.7030450019983393 C -2.033969536987839 0.7871097492653913 -2.041965440531237 0.8720392112263606 -2.0440267660876055 0.957215937904097 L -1.5424757208079352 0.957215937904097 L -1.5424757208079352 0.44628708455665117 C -1.612000849586229 0.44628708455665117 -1.6812026056725289 0.4491974387845822 -1.7494342436828452 0.45243116570450137 C -1.8176658816931617 0.4556648926244268 -1.8910714827753574 0.4614856010802765 -1.960919984245646 0.46795305492011485 Z" fill="#262626" transform="matrix(1,0,0,1,0,0)" fill-rule="evenodd"></path></g><g clip-path="url(&quot;#SvgjsClipPath1008&quot;)"><path d=" M -1.9137075712147982 0.3512155131109917 C -1.8564706047322108 0.3466882954231011 -1.79826352017364 0.3428078231191993 -1.7394096902310872 0.33989746889126826 C -1.6747351518326719 0.33687932376600993 -1.6090904953582859 0.3349390876140559 -1.542475720807923 0.33407676043541246 L -1.542475720807923 -0.049443252267163285 C -1.6068263164472816 -0.019226614786733487 -1.6658098055978543 0.02129722683338245 -1.7170969744836284 0.0705280164618791 C -1.785035507747436 0.13653185106077548 -1.8420174063850956 0.21294435881242924 -1.885897519703478 0.29688890085632913 C -1.8939818370032824 0.31176404468796 -1.9017427816110921 0.3272859339035734 -1.9095037262189019 0.34345456850318185 Z" fill="#e8a941" transform="matrix(1,0,0,1,0,0)" fill-rule="evenodd"></path></g><g clip-path="url(&quot;#SvgjsClipPath1008&quot;)"><path d=" M -1.0587101735878082 0.3512155131109917 L -1.0625906458917163 0.3428078231191993 C -1.070351590499526 0.326639188519597 -1.0784359077993302 0.31047055391999473 -1.0865202250991346 0.2959187827803521 C -1.1303154576840675 0.2119209130553501 -1.1873069111637884 0.1354955922970985 -1.255320770318978 0.06955789838592062 C -1.3066079392047583 0.02032710875741163 -1.365591428355331 -0.02019673286270431 -1.4299420239946836 -0.050413370343140286 L -1.4299420239946836 0.3331066423594416 C -1.3631116676496597 0.3331066423594416 -1.2974670111752737 0.3350468785113956 -1.2330080545715256 0.3389273508152974 C -1.1741542246289725 0.34280782311919306 -1.114977021994431 0.3466882954231011 -1.0587101735878082 0.3512155131109917 Z" fill="#bdbfc3" transform="matrix(1,0,0,1,0,0)" fill-rule="evenodd"></path></g><g clip-path="url(&quot;#SvgjsClipPath1008&quot;)"><path d=" M -0.9283909787150133 0.957215937904097 C -0.9303944912930304 0.8720217893839294 -0.9384995597765229 0.7870806716769273 -0.9526439306144134 0.7030450019983516 C -0.9655233125940237 0.6231463690548935 -0.98521301675795 0.5444957375869007 -1.0114977605569666 0.46795305492012107 C -1.080376143951272 0.4614856010802765 -1.150871390805543 0.4559882653164088 -1.222660128427773 0.45243116570450137 C -1.294448866050003 0.4488740660925878 -1.3604168952163833 0.4469338299406338 -1.4299420239946774 0.446287084556645 L -1.4299420239946774 0.957215937904091 Z" fill="#e8a941" transform="matrix(1,0,0,1,0,0)" fill-rule="evenodd"></path></g><g clip-path="url(&quot;#SvgjsClipPath1008&quot;)"><path d=" M -1.0114977605569728 1.5583657723173236 C -0.98521301675795 1.4818230896505378 -0.9655233125940237 1.4031724581825449 -0.9526439306144134 1.323273825239093 C -0.9384995597765291 1.2392381555605112 -0.9303944912930366 1.1542970378535153 -0.9283909787150255 1.0691028893333414 L -1.4299420239946958 1.0691028893333414 L -1.4299420239946958 1.5800317426807873 C -1.360416895216402 1.5800317426807873 -1.2912151391301023 1.5771213884528563 -1.2229835011197858 1.573564288840949 C -1.1547518631094695 1.5700071892290353 -1.080376143951278 1.5648332261571682 -1.0114977605569728 1.5583657723173236 Z" fill="#262626" transform="matrix(1,0,0,1,0,0)" fill-rule="evenodd"></path></g><g clip-path="url(&quot;#SvgjsClipPath1008&quot;)"><path d=" M -1.4299420239946836 2.0754387068126134 C -1.3656025226214787 2.0453405353741108 -1.3066172701305625 2.0049247142229243 -1.255320770318978 1.9557908107755533 C -1.1873822370551765 1.8897869761766692 -1.1304003384175108 1.8133744684250155 -1.0865202250991346 1.7294299263811155 C -1.078112535107336 1.7139080371654958 -1.0700282178075378 1.697092657181911 -1.0625906458917163 1.6825408860422684 L -1.0587101735878082 1.6738098233584815 C -1.1159471400704017 1.6786604137383665 -1.1741542246289725 1.6825408860422684 -1.2330080545715256 1.6854512402701993 C -1.2976825929699407 1.6882538036007968 -1.3633272494443267 1.6900862488554174 -1.4299420239946836 1.6909485760340608 Z" fill="#e8a941" transform="matrix(1,0,0,1,0,0)" fill-rule="evenodd"></path></g><g clip-path="url(&quot;#SvgjsClipPath1008&quot;)"><path d=" M -0.931301332942938 1.6628151518307588 C -0.9387389048587536 1.6812473952743032 -0.9468232221585577 1.6996796387178539 -0.9549075394583619 1.7174651367774094 C -0.9656866291914301 1.7403168070115171 -0.9764657189244983 1.7618749864776535 -0.9872448086575665 1.7821396751758247 C -1.0265308238242101 1.8561194461169785 -1.0746324405139533 1.9250687160898659 -1.1304989112100505 1.9874813345907811 C -1.1552549679141797 2.0145716573473207 -1.1816025998675757 2.0401634146135397 -1.209401848056108 2.064120662592896 C -1.136086429846309 2.044863697370277 -1.0649881866161282 2.0179850932222796 -0.9972693621093185 1.9839242349788613 C -0.8934822968905387 1.9316225165080552 -0.7987240528180117 1.8630647085846153 -0.7165818654602183 1.7808461844078534 C -0.6829335431987691 1.7473332845361802 -0.65160197638674 1.7115720824162424 -0.6228037847825301 1.6738098233584815 C -0.6059884047989452 1.652467225687006 -0.5904665155833257 1.6301545099395536 -0.5752679990597005 1.6071950488081186 C -0.6231271574745245 1.6168962295678824 -0.6722798066573201 1.6256272922516692 -0.724019437376046 1.6337116095514672 C -0.7916043300023798 1.6456763991551795 -0.8608060860886733 1.6550542072229488 -0.931301332942938 1.6628151518307588 Z" fill="#bdbfc3" transform="matrix(1,0,0,1,0,0)" fill-rule="evenodd"></path></g><g clip-path="url(&quot;#SvgjsClipPath1008&quot;)"><path d=" M -0.8165040272857627 1.0691028893333476 C -0.818364855525791 1.15575193220352 -0.8260352231881691 1.24217861008958 -0.8394634884171979 1.3278010429269773 C -0.8510144286127983 1.4017548002953064 -0.867763518747189 1.4748024450104533 -0.8895862556759704 1.5464009827136176 C -0.8249117172775551 1.5386400381058079 -0.7629319513124102 1.52969339362736 -0.7036469577805413 1.5195610492782807 C -0.6341218290022475 1.5075962596745685 -0.5668603090679016 1.4943379793028972 -0.5028325160534752 1.4797862081632547 C -0.47153403688914874 1.4136737125163368 -0.4470470658294894 1.344546776516053 -0.4297502876632677 1.273474430672315 C -0.41335716807172673 1.2068898589069983 -0.4033946990523911 1.1388851790793741 -0.3999999999999937 1.0703963801013066 Z" fill="#e8a941" transform="matrix(1,0,0,1,0,0)" fill-rule="evenodd"></path></g><g clip-path="url(&quot;#SvgjsClipPath1008&quot;)"><path d=" M -0.8886161375999995 0.4812113352917985 C -0.8667934006712184 0.5528098729949564 -0.8500443105368214 0.6258575177101097 -0.838493370341227 0.6998112750784263 C -0.8250651051121982 0.78543370791583 -0.8173947374498203 0.8718603858018898 -0.815533909209792 0.9585094286720683 L -0.3990298819240228 0.9585094286720683 C -0.40247186650534283 0.8900252626551229 -0.4124336774563515 0.8220250748591469 -0.4287801695872906 0.7554313781010602 C -0.4461873641735399 0.6843489290840321 -0.4707825813422857 0.6152222834732229 -0.502185770669493 0.5491196006101267 C -0.5668603090679016 0.534567829470484 -0.6331517109262765 0.5209861764068122 -0.7026768397045706 0.5093447594951006 C -0.7634709057990716 0.4985656697620324 -0.8254506717642165 0.489187861694263 -0.8886161375999995 0.4812113352917985 Z" fill="#262626" transform="matrix(1,0,0,1,0,0)" fill-rule="evenodd"></path></g><g clip-path="url(&quot;#SvgjsClipPath1008&quot;)"><path d=" M -1.2100485934400966 -0.03941869881541125 C -1.182095405304198 -0.0156302062500914 -1.155737508982344 0.00997152091498623 -1.1311456565940394 0.03722062918669761 C -1.0752506573058174 0.09949287158792466 -1.02714535578511 0.16833883358370136 -0.9878915540415552 0.24223891590966595 C -0.9765735098218318 0.26325814088914706 -0.9655788382941028 0.2852474839446113 -0.9555542848423506 0.30691345430808115 C -0.9474699675425464 0.324698952367643 -0.9393856502427422 0.34313119581118745 -0.9319480783269269 0.36156343925473194 C -0.8614528314726619 0.36932438386254174 -0.7925744480783508 0.3785944010329838 -0.7253129281440052 0.389373490766052 C -0.6742200428092617 0.39745780806585623 -0.6244206482424774 0.40618887074963683 -0.5765614898276532 0.4155666788174063 C -0.5917600063512785 0.3929305903779656 -0.6072818955668982 0.37061787463051316 -0.6237739028584885 0.3508921404189973 C -0.6527065679033837 0.3131445622550095 -0.684144627310908 0.2773851201110618 -0.7178753562281772 0.2438557793696256 C -0.7999558415805306 0.16156492940767317 -0.8947263920613318 0.09299821776949257 -0.9985628528772714 0.04077772879861122 C -1.0660752244645124 0.006758833912791452 -1.1369546360746043 -0.02011898578032996 -1.2100485934400966 -0.03941869881541125 Z" fill="#e8a941" transform="matrix(1,0,0,1,0,0)" fill-rule="evenodd"></path></g><g clip-path="url(&quot;#SvgjsClipPath1008&quot;)"><path d=" M -1.7617224059785332 -0.03941869881541125 C -1.8350378241883385 -0.02016173359279184 -1.9061360674185193 0.006716870555205479 -1.9738548919253227 0.040777728798623555 C -2.0776419571441087 0.0930794472694298 -2.1724002012166355 0.16163725519286978 -2.254542388574423 0.24385577936963176 C -2.2882060907326096 0.27744810276126086 -2.3196401277467946 0.3132029696055774 -2.348643841944112 0.35089214041900346 C -2.365135849235702 0.3722347380904789 -2.380981111143316 0.3945474538379314 -2.395856254974947 0.41556667881741244 C -2.3476737238681284 0.40618887074964305 -2.298844447377327 0.39745780806585623 -2.2471048166586014 0.38937349076605815 C -2.179843296724256 0.37870219193031734 -2.110641540637956 0.3693243838625479 -2.040469666475673 0.3615634392547381 C -2.033032094559858 0.34313119581119367 -2.0249477772600537 0.324698952367643 -2.0168634599602555 0.30659008161608675 C -2.0087791426604515 0.2884812108645367 -1.995197489596786 0.2619646501211818 -1.9845261907610512 0.24191554321767778 C -1.9452723890175028 0.16801546089170696 -1.8971670874967952 0.09916949889593027 -1.8412720882085731 0.03689725649470939 C -1.8163809480672857 0.009816753682805518 -1.7898119891367053 -0.01567216626685479 -1.7617224059785457 -0.03941869881541125 Z" fill="#262626" transform="matrix(1,0,0,1,0,0)" fill-rule="evenodd"></path></g></g></g><defs><clipPath id="SvgjsClipPath1009"><path d=" M -2.5724177448026126 -0.049443252267163285 h 2.1724177448026127 v 2.1248819590797807 h -2.1724177448026127 Z"></path></clipPath><clipPath id="SvgjsClipPath1008"><path d=" M -2.5724177448026126 -0.049443252267163285 L -0.3999999999999999 -0.049443252267163285 L -0.3999999999999999 2.0754387068126174 L -2.5724177448026126 2.0754387068126174 Z"></path></clipPath></defs></svg>